<svg width="122" height="149" viewBox="0 0 122 149" fill="none" xmlns="http://www.w3.org/2000/svg">
<path fill-rule="evenodd" clip-rule="evenodd" d="M63.9998 100.039C90.6936 100.039 112.333 78.3992 112.333 51.7054C112.333 25.0116 90.6936 3.37207 63.9998 3.37207C37.3061 3.37207 15.6665 25.0116 15.6665 51.7054C15.6665 78.3992 37.3061 100.039 63.9998 100.039Z" fill="#EDE8E2" stroke="#8B9D83" stroke-width="4.83333"/>
<path fill-rule="evenodd" clip-rule="evenodd" d="M63.9998 95.2061C63.9998 95.2061 83.3332 79.3879 83.3332 51.7061C83.3332 24.0242 63.9998 8.20605 63.9998 8.20605C63.9998 8.20605 44.6665 24.0242 44.6665 51.7061C44.6665 79.3879 63.9998 95.2061 63.9998 95.2061Z" stroke="#8B9D83" stroke-width="4.83333"/>
<path d="M18.0832 37.2054H109.916" stroke="#8B9D83" stroke-width="4.83333" stroke-linecap="round"/>
<path d="M18.0832 66.2054H109.916" stroke="#8B9D83" stroke-width="4.83333" stroke-linecap="round"/>
<path d="M7.13721 74.1375C7.13721 72.0234 8.85105 70.3096 10.9652 70.3096H57.8578C59.9719 70.3096 61.6857 72.0234 61.6857 74.1375V105.878C61.6857 107.992 59.9719 109.706 57.8578 109.706H10.9652C8.85104 109.706 7.13721 107.992 7.13721 105.878V74.1375Z" fill="#306838"/>
<path fill-rule="evenodd" clip-rule="evenodd" d="M53.0313 75.8844C54.1366 75.2893 55.515 75.7028 56.1101 76.808C56.7052 77.9133 56.2917 79.2917 55.1865 79.8868L35.4884 90.4934C34.8157 90.8557 34.006 90.8557 33.3333 90.4934L13.6352 79.8868C12.53 79.2917 12.1164 77.9133 12.7116 76.808C13.3067 75.7028 14.6851 75.2893 15.7903 75.8844L34.4108 85.9108L53.0313 75.8844Z" fill="white"/>
</svg>
