<svg width="505" height="485" viewBox="0 0 505 485" fill="none" xmlns="http://www.w3.org/2000/svg">
<path d="M498.26 149.124C489.731 148.222 481.65 145.064 473.344 143.034C471.549 142.583 469.753 142.132 467.957 141.906C469.977 140.779 471.549 139.2 472.671 136.944C473.12 135.817 473.12 134.914 472.896 134.012C477.385 131.306 481.65 128.599 486.139 125.442C490.628 122.284 497.811 119.352 500.28 113.939C501.403 113.713 502.301 113.262 503.423 113.037C502.076 104.015 499.832 95.2188 496.24 86.8737C490.404 72.89 486.588 59.3574 477.16 47.178C468.855 36.1264 458.979 31.39 446.408 26.2025C430.471 19.6617 412.963 20.5639 396.352 17.6318C381.089 14.9253 367.621 9.28671 351.908 9.28671C342.48 9.28671 333.053 10.4144 323.85 10.4144C316.218 10.4144 309.035 7.7079 301.627 7.93345C298.485 7.93345 295.791 8.61008 292.649 8.15899C288.159 7.48236 284.343 5.00138 280.078 3.42258C273.793 1.39268 267.733 1.61823 261.223 1.84377C246.408 2.29486 232.267 -1.53938 217.677 0.716054C210.269 1.84377 204.433 4.77584 197.25 6.58019C193.659 7.48236 190.516 9.06117 187.598 10.8655C186.7 10.8655 185.802 10.8655 184.905 10.8655C169.641 9.7378 153.928 12.4443 139.338 15.3764C115.32 20.3383 91.7508 38.8329 78.7317 59.3574C71.5488 70.6346 69.3041 83.9416 63.2435 95.6699C56.5095 109.428 51.3468 122.059 46.4085 136.719C41.9192 149.8 37.8788 162.656 31.1448 174.836C24.8597 186.338 21.2682 199.871 19.0236 212.953C16.5544 226.26 14.7587 240.694 8.92256 253.325C6.67789 258.061 3.08642 262.121 1.51515 267.083C-0.729517 273.849 -0.0561167 281.067 0.841751 288.059C2.41302 300.012 5.33109 311.741 6.90236 323.92C8.69809 337.904 10.9428 353.241 15.881 366.322C20.1459 377.599 30.0224 386.847 37.8788 395.643C46.1841 404.89 57.1829 410.303 69.0797 413.912C83.4456 417.972 97.587 418.874 111.055 426.091C112.626 426.993 113.973 427.67 115.544 428.347C115.993 428.572 116.442 429.023 116.891 429.023C117.116 429.023 117.116 429.023 117.34 429.023C118.687 429.7 120.258 430.377 121.605 430.828C122.054 430.151 122.503 429.7 122.727 429.023C127.217 428.121 131.257 425.189 134.624 421.806C142.031 414.363 147.643 405.116 155.05 397.673C162.907 389.779 173.457 386.17 181.762 378.953C182.211 378.502 182.66 378.276 182.884 377.825C183.782 377.374 184.68 376.697 185.578 376.021C186.925 374.893 187.823 372.863 189.394 371.735C189.618 371.735 189.843 371.735 189.843 371.961C189.843 373.765 189.843 375.795 189.618 377.599C188.72 386.621 184.456 394.515 183.558 403.537C182.66 412.784 181.313 421.355 179.742 430.377C178.619 437.143 178.171 442.781 179.742 449.548C180.191 451.352 181.986 453.608 184.007 453.833C184.456 453.833 184.905 454.059 185.353 454.059C187.374 454.284 188.945 453.833 190.292 452.931C203.086 455.412 215.432 459.697 228.002 462.855C228.227 468.719 229.798 473.906 234.287 474.132C234.736 474.132 234.736 473.455 234.287 473.455C230.92 472.328 230.022 467.817 230.022 463.531C236.981 465.11 243.49 466.464 249.775 470.523C255.387 474.132 259.428 478.417 265.713 480.898C279.63 486.311 294.444 485.86 308.81 482.477C320.931 479.771 332.604 474.809 344.5 471.651C358.642 467.817 373.681 467.817 388.047 465.11C398.821 463.08 410.269 459.923 418.799 452.48C428.227 444.135 433.165 431.955 439.001 421.129C453.591 394.741 464.815 365.871 474.467 337.453C484.119 309.26 496.24 281.743 501.178 251.972C506.117 223.102 495.791 194.909 501.403 166.491C501.627 165.363 501.852 164.01 502.076 162.882C507.014 159.499 505.668 150.026 498.26 149.124ZM82.5477 95.2188C87.2615 81.4607 90.6285 68.6047 100.056 57.1019C109.035 46.2759 122.503 35.4498 135.522 30.4878C142.705 27.7813 150.561 27.1047 157.969 25.3003C165.6 23.496 173.008 21.2405 180.864 20.7894C194.108 20.1128 205.78 17.1807 218.799 14.9253C219.697 14.6998 219.921 14.0231 219.921 13.121C228.227 12.6699 236.307 13.572 245.511 14.9253C258.081 16.9552 269.304 14.9253 280.976 20.1128C291.302 24.6237 302.974 24.1726 313.973 25.7514C326.543 27.7813 339.562 25.7514 352.132 26.2025C366.498 26.6536 377.946 32.0666 391.638 35.4498C404.658 38.6074 417.901 38.6074 430.471 43.5693C436.307 45.8248 441.021 49.8846 446.184 53.4932C451.347 56.8764 452.694 60.7106 456.061 65.8981C462.121 74.9199 463.917 85.5204 468.406 95.2188C470.875 100.406 473.793 105.368 475.365 111.007C476.263 114.39 476.711 117.548 476.936 121.156C473.793 123.412 470.875 125.442 467.508 127.472C464.141 129.276 460.774 131.306 457.632 133.336C457.407 133.336 457.407 133.336 457.183 133.336C456.734 131.757 456.06 129.953 455.612 128.374C452.469 130.404 449.102 132.208 445.959 134.238C446.408 135.366 446.633 136.268 447.082 137.395C443.49 138.974 439.899 140.779 436.307 142.357C434.063 143.26 432.043 144.387 430.022 145.741C429.798 144.838 429.349 143.936 429.124 143.26C426.206 144.613 423.288 146.192 420.37 147.545C420.819 148.673 421.268 149.8 421.493 150.928C416.105 154.311 410.718 157.694 404.882 159.724C404.658 158.597 404.209 157.469 403.76 156.341C401.291 157.694 399.046 159.048 396.577 160.626C397.924 164.461 399.046 168.295 399.495 172.58C400.393 180.474 399.27 187.466 399.046 195.36C399.046 198.292 398.373 202.578 399.27 205.51C400.617 209.569 404.209 212.05 405.331 216.336C407.576 225.357 403.311 234.379 403.086 243.401C402.862 252.648 400.393 261.219 398.372 270.015C399.944 270.466 401.515 270.917 402.862 271.368C406.229 263.249 409.82 255.355 410.269 246.333C410.943 237.537 413.412 229.192 412.963 220.396C412.514 211.374 404.658 205.735 404.433 196.713C404.209 192.428 406.229 188.594 406.678 184.309C407.127 180.474 407.127 176.415 406.902 172.58C406.678 170.099 406.453 167.618 406.004 165.363C412.065 165.588 418.126 163.784 423.737 161.529C423.737 161.754 423.737 161.98 423.737 161.98C424.86 171.227 423.288 179.572 423.288 188.594C423.288 192.203 422.39 196.939 423.513 200.322C425.084 205.059 429.349 207.991 430.471 212.953C432.94 223.553 428.002 234.154 427.778 244.754C427.553 261.67 420.595 276.556 419.248 293.246C418.799 294.148 418.126 295.05 417.901 295.953C417.677 296.629 417.228 297.306 417.003 297.982C416.105 295.727 415.432 293.246 414.534 290.991C414.085 289.863 412.289 290.314 412.738 291.442C413.861 294.374 414.983 297.306 415.881 300.463C414.31 303.396 412.738 306.553 411.167 309.485C407.127 316.928 402.637 323.469 401.291 331.814C399.27 344.67 393.434 355.496 384.904 364.518C384.231 362.714 383.782 360.684 383.109 358.879C382.66 357.752 381.089 358.203 381.313 359.33C381.986 361.586 382.66 363.841 383.333 366.097C379.068 370.382 374.355 374.216 369.192 377.374C367.396 371.284 365.376 365.42 363.131 359.556C369.416 355.271 375.701 350.083 377.497 343.091C380.191 340.61 381.986 335.874 383.109 332.491C386.476 333.167 389.618 333.393 392.536 332.491C394.332 331.814 395.454 329.333 393.883 327.754C391.414 325.499 388.72 323.92 385.802 322.341C385.802 322.116 385.802 321.89 386.027 321.665C374.579 318.733 363.356 311.741 353.928 305.877C348.316 302.493 342.256 298.659 336.42 294.599C333.951 293.246 331.257 291.667 328.788 290.088C329.012 289.863 329.237 289.412 329.461 289.186C327.441 287.607 325.645 286.029 323.85 284.224C323.625 284.45 323.625 284.675 323.401 284.901C323.176 285.352 322.952 285.803 322.727 286.48C317.789 283.773 312.402 281.518 307.239 280.616C307.015 280.616 306.79 280.616 306.566 280.616C308.361 277.909 310.157 275.203 311.728 272.947C315.095 267.309 312.851 261.219 314.646 255.129C317.116 246.559 323.401 241.146 325.196 231.898C326.543 225.583 326.319 218.14 324.523 211.825C322.952 205.961 318.911 202.352 314.197 200.097C313.3 195.135 312.402 190.398 311.504 185.662C313.524 186.564 315.769 187.241 318.013 187.917C329.237 191.075 333.951 195.586 336.644 207.088C337.991 213.178 339.562 220.621 339.338 227.387C339.113 227.387 339.113 227.613 339.113 227.838C337.542 235.958 335.297 244.529 332.604 252.423C331.481 255.58 329.686 258.512 329.237 261.896C329.012 265.053 330.135 268.211 329.91 271.368C329.686 274.977 328.339 277.458 326.543 279.939C328.563 281.292 330.584 282.646 332.379 283.999C333.951 281.292 335.073 278.36 335.522 275.203C336.644 267.534 335.297 261.219 337.542 253.776C339.338 247.912 340.011 241.371 340.236 235.056C342.929 228.966 342.705 222.425 342.48 215.434C342.031 206.863 342.031 194.458 336.42 187.466C334.399 184.985 331.706 183.181 328.563 182.053C327.441 175.061 324.972 168.069 322.503 161.078C326.768 163.107 331.032 165.137 335.297 166.716C335.522 167.167 335.746 167.844 335.746 168.295C335.971 168.972 336.195 169.648 336.195 170.325C335.971 169.874 336.195 176.414 335.297 173.708C335.073 173.257 334.624 173.482 334.624 173.934C334.848 174.61 334.848 175.287 335.073 175.963C335.073 176.189 335.522 176.415 335.746 176.415C339.113 175.738 338.664 171.678 337.542 167.844C343.154 170.325 346.072 174.836 350.112 179.572C357.071 187.692 361.111 198.518 359.989 209.569C359.315 215.885 357.744 222.651 355.948 228.741C353.704 237.086 353.704 244.303 352.581 252.874C351.683 259.64 351.459 266.406 350.561 273.173C349.663 279.488 350.786 286.48 349.663 292.344C349.439 293.246 349.214 294.148 348.765 295.276C350.337 296.404 351.908 297.306 353.704 298.434C356.846 293.697 356.622 289.412 357.52 283.548C359.315 270.241 361.56 257.159 361.56 243.852C361.56 230.771 368.743 217.463 367.621 204.156C366.274 189.27 361.336 180.023 352.581 168.746C352.132 168.069 351.683 167.618 351.234 167.167C351.459 167.167 351.683 166.942 351.683 166.716C352.357 157.243 349.663 147.996 348.092 138.749C348.092 138.072 347.867 137.395 347.867 136.719C349.888 137.17 352.132 138.072 353.928 139.425C355.724 140.779 357.295 142.357 358.866 144.162C359.091 148.222 359.315 152.281 359.764 156.341C359.764 156.792 360.438 156.792 360.438 156.341C360.887 153.184 360.887 150.026 360.887 146.643C362.458 148.447 364.029 150.251 365.6 151.83C373.008 158.822 375.701 166.716 376.15 176.866C376.375 181.376 375.477 185.887 376.15 190.398C376.599 194.458 378.619 197.841 379.742 201.901C381.762 209.569 379.966 216.336 379.293 224.004C378.395 233.477 379.068 243.401 378.17 252.874C377.722 257.836 375.477 262.572 373.906 267.083C375.926 267.309 377.722 267.76 379.742 267.985C381.313 265.73 383.333 263.7 384.68 261.219C388.272 254.904 388.047 246.784 388.496 239.567C389.169 229.868 391.639 218.817 390.292 209.118C388.72 198.518 384.905 189.722 384.68 178.896C384.456 171.453 383.782 162.431 380.191 155.665C378.171 151.83 375.028 148.673 371.885 145.741C368.518 142.583 366.049 138.749 362.682 135.366C361.784 134.463 360.887 133.787 359.989 133.11C359.764 129.727 359.315 126.118 359.091 122.735C358.866 120.705 358.642 118.675 358.642 116.871C361.784 117.773 365.376 117.999 368.967 118.224C370.539 118.224 371.661 118.45 373.008 118.675C372.334 122.961 371.661 127.472 370.539 131.757C370.314 132.659 371.661 132.885 371.885 132.208C373.008 127.923 373.906 123.637 374.579 119.126C387.598 123.186 388.496 139.425 392.985 151.605C393.659 153.635 394.557 155.665 395.23 157.694C397.475 155.89 399.719 154.086 401.964 152.507V152.281C396.128 139.2 395.903 124.088 383.558 114.616C381.089 112.811 378.395 111.909 375.701 111.458C376.15 106.722 376.599 101.76 376.824 97.0232C380.64 97.9253 384.456 98.3764 388.496 98.3764C410.045 99.2786 410.494 121.382 416.33 137.395C417.003 138.974 417.452 140.553 418.126 142.132C420.819 140.553 423.737 138.974 426.655 137.621C419.921 122.51 419.697 104.917 405.555 94.0911C399.046 89.1291 390.965 90.4824 383.333 89.5802C373.681 88.4525 367.396 79.8819 358.417 76.7242C340.685 70.6346 321.605 73.3411 303.423 74.4688C294.669 74.9199 289.506 74.2433 281.65 70.8601C274.018 67.7025 267.059 64.0938 258.979 62.2895C253.367 60.9362 247.531 60.4851 241.919 60.034C245.735 56.4253 249.775 52.8166 253.367 49.2079C254.04 48.5313 252.918 47.178 252.245 48.0802C248.204 52.3655 243.715 56.1998 239.226 60.034C227.553 59.8085 215.881 61.1617 204.209 62.2895C197.026 62.9661 189.618 62.0639 182.435 62.7405C177.722 63.1916 173.008 64.5449 168.294 65.4471C159.091 67.477 151.01 71.7623 142.256 75.1454C135.297 77.6264 129.461 84.8438 126.543 91.3846C125.196 94.3166 124.523 97.4742 123.85 100.406C122.503 102.887 121.605 105.368 120.707 107.849C114.422 110.556 108.81 114.164 103.199 117.999C102.525 113.713 101.852 109.428 101.852 105.143C101.852 104.466 101.852 103.789 101.852 103.113C107.015 99.7297 111.953 96.121 116.667 92.0612C117.565 91.3846 116.218 90.2569 115.544 90.9335C111.504 94.5422 107.239 97.6998 102.75 100.632C108.586 89.1291 111.728 74.0177 120.483 64.996C120.707 64.7704 120.707 64.7704 120.932 64.5449C124.074 61.3873 128.114 58.9063 133.277 58.0041C135.746 57.553 137.991 56.6509 140.011 55.5231C140.909 56.1998 142.256 55.2976 142.256 54.1699C146.072 52.14 149.888 49.659 154.377 48.7568C167.172 46.0503 179.517 46.0503 192.536 44.9226C197.026 44.4715 201.515 43.3438 206.004 42.6672C211.167 41.765 215.657 42.4416 220.819 42.4416C233.838 42.4416 244.388 40.8628 257.407 44.246C271.998 48.3057 285.466 60.2596 300.954 60.4851C310.382 60.4851 320.258 59.5829 329.461 58.6808C340.685 57.3275 349.888 58.2297 360.887 59.5829C371.885 60.9362 377.722 64.996 386.7 71.3112C393.659 76.0476 401.066 76.7242 409.371 76.9498C434.287 77.852 434.736 103.338 441.47 121.833C442.368 124.314 443.49 126.795 444.388 129.276C447.755 127.923 451.347 126.569 454.714 125.216C454.265 124.314 454.04 123.412 453.591 122.51C445.735 104.917 445.511 84.6183 428.9 71.7623C421.268 65.8981 412.289 67.7025 403.311 66.5748C392.087 65.2215 384.905 55.2976 374.579 51.6889C354.153 44.6971 332.155 47.8547 311.279 49.2079C301.178 49.8846 295.118 48.7568 286.139 45.1481C277.385 41.3139 269.304 37.4797 259.876 35.2242C238.777 30.4878 217.901 32.9688 196.801 35.4498C188.496 36.3519 179.966 35.2242 171.661 35.9009C166.049 36.3519 160.662 37.9307 155.275 39.0585C144.501 41.3139 135.297 46.5014 125.196 50.1101C117.34 53.0422 110.382 61.1617 107.015 68.6047C105.443 71.9878 104.77 75.5965 103.872 79.2052C100.056 86.8737 97.3625 95.2188 96.4646 103.564C96.4646 103.564 96.2402 103.564 96.2402 103.789C90.6285 106.947 85.9147 111.458 80.303 114.616C78.5073 115.743 76.2626 116.645 74.2424 117.773C76.7115 109.879 80.0785 102.887 82.5477 95.2188ZM448.878 279.037C448.653 279.262 448.653 279.488 448.653 279.939C446.857 287.156 445.286 294.374 444.837 301.817C444.164 302.944 443.715 303.847 443.266 304.749C441.021 309.485 438.552 314.222 436.083 318.732C435.41 314.673 434.736 310.387 434.512 306.328C434.287 300.463 434.287 294.825 433.389 288.961C432.716 283.548 431.145 278.36 429.573 273.173C432.94 265.053 436.307 256.934 436.756 247.686C437.43 237.311 440.348 227.838 439.899 217.463C439.45 206.863 430.247 200.548 429.798 189.722C429.573 184.534 431.818 180.023 432.491 175.061C432.94 170.776 432.94 165.814 432.716 161.303C432.716 159.95 432.491 158.371 432.267 157.018C435.185 155.664 437.879 154.311 440.797 153.409C442.817 152.732 444.837 151.83 446.857 150.928C447.082 151.154 447.306 151.154 447.755 151.379C448.429 151.605 449.326 152.056 450 152.281C450.898 161.98 449.326 171.001 449.102 180.7C449.102 184.76 448.204 190.398 449.327 194.232C451.122 199.645 456.06 203.029 457.407 208.893C460.325 221.298 454.489 233.251 454.489 245.431C454.489 257.385 451.571 268.211 448.878 279.037ZM412.065 374.667C409.82 367.675 407.576 360.684 405.555 353.692C405.331 352.564 403.311 353.015 403.76 354.143C405.78 361.586 408.249 369.029 410.718 376.472C405.78 383.012 399.944 388.877 393.21 393.839C391.639 387.523 389.843 381.208 388.047 374.667C392.761 370.608 396.801 365.871 398.372 360.458C401.964 357.3 404.209 350.309 405.555 346.249C408.025 339.708 408.025 332.716 410.045 326.175C410.943 329.784 411.841 333.167 412.738 336.776C414.31 343.542 415.432 350.309 416.779 357.3C417.228 359.556 417.677 361.811 418.126 363.841C416.33 367.901 414.31 371.51 412.065 374.667ZM346.521 407.371C345.398 401.958 344.276 396.319 343.154 390.906C347.419 389.779 351.01 390.681 355.499 391.132C361.336 391.583 365.6 389.553 370.09 387.072C371.661 392.485 373.008 397.898 374.355 403.537C365.6 404.665 356.397 402.635 347.643 406.92C347.194 406.92 346.97 407.146 346.521 407.371ZM329.91 439.849C329.91 440.752 329.91 441.879 329.91 442.781C323.85 444.586 317.789 446.841 311.728 448.871C311.728 444.135 311.504 439.398 311.055 434.887C314.197 433.76 317.34 432.858 320.258 431.955C323.176 431.279 326.094 430.377 329.012 429.249C329.461 432.858 329.91 436.241 329.91 439.849ZM315.769 422.031C313.749 422.483 311.953 423.159 310.157 423.836C309.484 418.197 309.035 412.784 308.586 407.146C308.586 406.92 308.586 406.92 308.586 406.694C309.484 406.469 310.606 406.018 311.504 405.792C316.218 404.665 320.931 402.86 325.196 400.83C326.094 406.243 326.768 411.656 327.441 417.069C327.441 417.295 327.441 417.521 327.441 417.521C324.074 419.55 320.258 421.129 315.769 422.031ZM293.322 429.023C293.098 423.159 292.649 417.295 292.2 411.656C297.138 410.754 302.076 408.95 307.014 407.371C307.014 408.499 307.015 409.401 307.239 410.529C307.463 415.265 307.912 419.776 308.361 424.512C304.77 425.866 301.403 427.219 297.811 428.347C296.24 428.798 294.669 429.023 293.322 429.023ZM217.452 439.624C217.452 440.526 217.452 441.203 217.452 442.105C211.841 441.203 206.453 440.075 200.842 439.173C200.842 436.015 201.291 432.858 201.291 431.053C201.291 428.347 201.291 425.866 201.291 423.159C204.209 423.385 207.351 423.836 210.269 424.512C212.738 425.189 215.208 426.091 217.452 427.219C217.452 431.279 217.452 435.564 217.452 439.624ZM206.902 374.216C211.167 374.667 215.432 374.667 219.697 375.57C219.697 380.757 219.472 385.944 219.248 390.906C217.003 390.23 214.534 389.779 211.841 389.328C208.698 388.877 205.555 388.651 202.637 388.2C203.086 383.464 203.535 378.502 203.76 373.765C204.433 373.991 205.555 373.991 206.902 374.216ZM134.624 310.613C129.686 304.298 121.829 293.246 121.38 286.705C121.156 282.42 123.625 280.165 125.196 276.556C127.441 272.045 128.339 267.309 130.808 263.023C133.502 258.061 138.664 254.453 140.685 249.265C142.48 244.98 143.378 240.018 144.725 235.281C146.745 235.507 148.765 235.732 151.01 235.958C154.602 236.184 158.866 236.409 162.682 235.732C159.764 240.018 159.315 244.754 156.173 249.04C151.683 254.678 146.745 259.64 143.154 266.181C139.113 274.075 132.604 286.029 140.011 293.246C144.725 297.757 151.683 300.463 157.071 303.847C163.58 307.906 167.845 312.417 175.252 314.673C181.089 316.252 186.7 315.8 192.312 317.154C197.699 318.507 201.066 320.988 207.127 320.762C214.983 320.311 217.452 319.86 223.513 326.852C225.084 328.656 225.982 330.686 227.553 332.491C232.267 337.453 236.532 337.227 243.041 338.806C251.571 340.836 260.325 341.963 269.08 343.542C276.712 344.896 285.69 347.151 293.322 344.896C299.383 343.091 305.892 339.483 311.504 336.325C316.442 333.618 320.931 330.235 324.747 325.95C331.481 324.146 335.746 317.605 340.46 312.417C341.358 311.29 342.256 310.387 343.378 309.485C346.296 311.29 348.99 312.868 351.683 314.673C353.03 315.575 354.377 316.477 355.948 317.379C354.826 319.184 353.479 321.213 352.581 323.018C348.316 330.686 342.031 333.844 334.175 337.227C326.992 340.159 318.911 339.257 312.402 343.768C307.463 347.151 302.301 353.015 297.362 355.045C293.771 356.398 286.364 357.752 282.099 357.977C277.834 358.203 274.242 357.977 270.202 359.33C268.855 359.781 267.957 360.007 267.059 360.458C266.835 359.781 266.835 359.33 266.61 358.654C266.386 357.752 265.264 357.977 265.039 358.654C264.59 357.752 263.468 357.075 262.346 356.849C254.714 356.624 247.082 355.947 239.45 355.271C230.92 354.368 229.573 350.309 223.064 345.347C211.841 337.002 202.189 334.972 188.496 334.069C184.456 333.844 181.089 332.265 176.824 331.363C169.641 329.784 158.866 326.627 152.357 322.792C146.296 319.409 140.909 318.958 136.644 313.094C136.42 312.868 136.195 312.643 135.971 312.417L136.195 312.192C136.869 311.064 135.522 309.711 134.624 310.613ZM124.747 369.029C128.114 370.156 131.481 371.51 134.4 372.863C132.604 375.569 130.808 378.276 129.237 381.208C127.666 383.915 126.319 386.621 124.747 389.328C121.38 387.523 117.789 385.945 114.198 384.591C116.442 381.208 118.687 377.825 120.932 374.442C122.054 372.412 123.176 370.608 124.747 369.029C124.523 368.803 124.523 368.803 124.747 369.029ZM96.6891 405.567C92.4242 404.665 88.3838 403.762 84.3434 402.86C85.0168 401.733 85.9147 400.605 86.8125 399.703C89.5061 396.32 92.6487 393.387 95.5668 390.004C96.6891 388.877 97.587 387.523 98.4848 386.396C100.505 387.523 102.525 388.425 104.994 389.328C105.892 389.553 106.79 390.004 107.688 390.23C104.097 395.417 100.729 400.379 97.3625 405.567C97.138 405.792 96.9136 405.567 96.6891 405.567ZM109.933 391.132C109.035 394.515 105.892 397.898 103.872 400.154C103.648 400.379 103.648 400.379 103.423 400.605C105.443 397.447 107.688 394.29 109.933 391.132ZM119.136 373.314C116.891 376.923 114.646 380.306 112.177 383.915C109.259 382.787 106.341 381.885 103.423 380.757C106.117 377.599 108.586 374.216 111.279 371.059C112.851 369.029 114.646 366.999 116.218 364.969C118.238 366.322 120.258 367.45 122.727 368.352C121.38 369.931 120.258 371.51 119.136 373.314ZM99.8316 378.953C95.7912 376.697 93.3221 373.314 89.9551 370.382C88.1594 369.029 86.5881 367.45 84.5679 366.097C89.0572 361.811 93.771 357.526 98.4848 353.241C98.7093 353.015 98.7093 353.015 98.9338 352.79C101.178 354.368 103.648 355.947 105.892 357.752C109.035 360.007 111.728 362.037 114.646 363.841C112.851 366.322 110.831 368.803 108.81 371.284C106.341 374.216 104.096 376.923 101.852 379.855C100.954 379.404 100.505 379.178 99.8316 378.953ZM70.6509 355.947C66.6105 353.692 63.468 353.692 59.8765 350.534C59.6521 350.309 59.4276 350.083 59.2031 349.858C64.5903 345.572 69.7531 340.61 74.4669 335.648C76.0381 339.483 78.2828 342.415 82.3232 344.219C83.4456 344.67 84.5679 345.121 85.6902 345.572C83.67 347.828 81.6498 350.309 79.4051 352.564C77.6094 354.368 76.0381 356.173 74.2424 358.203C73.3445 357.526 71.9977 356.624 70.6509 355.947ZM25.5331 290.54C33.6139 284.901 41.6947 279.262 49.7755 273.624C48.8777 278.36 47.9798 283.322 46.4085 287.833C39.45 293.923 32.716 300.238 26.2065 306.779C25.5331 301.591 25.0842 296.178 25.5331 290.54ZM94.8934 122.059C93.9955 122.735 92.8732 123.412 91.9753 124.314C83.8945 130.178 75.1403 134.689 66.6105 139.651C66.835 138.523 67.0595 137.621 67.2839 136.493C68.4063 130.629 70.4265 124.991 72.6711 119.578C76.7115 117.548 80.7519 115.292 84.5679 112.811C88.1594 110.105 91.9753 107.849 95.7912 105.368C95.7912 106.045 95.5668 106.722 95.5668 107.624C95.3423 112.36 95.1178 117.322 94.8934 122.059ZM65.9371 142.132C74.4669 137.17 83.2211 132.659 91.3019 126.795C92.4242 125.893 93.5466 125.216 94.8934 124.314C94.6689 129.727 94.22 134.914 93.3221 140.328C89.0572 143.034 84.7923 145.515 80.5275 147.996C74.6913 151.379 69.0797 154.988 63.468 158.822C64.1414 153.184 65.0393 147.545 65.9371 142.132ZM209.371 83.9416C212.289 84.1672 213.412 82.5884 215.432 80.5585C219.024 77.1753 223.288 74.4688 227.104 71.3112C228.676 69.9579 230.471 68.3791 232.043 67.0259C238.328 66.8003 244.164 66.5748 250.673 67.7025C244.388 73.3411 237.879 79.2052 231.145 84.6183C224.411 85.0694 217.452 85.746 210.718 86.4226C204.433 87.0993 198.373 86.1971 192.087 86.6482C188.047 87.0992 184.007 88.227 179.966 89.1291C172.11 90.9335 165.151 94.5422 157.744 97.4743C151.908 99.7297 146.745 105.594 144.276 111.232C143.154 113.713 142.48 116.42 141.807 119.126C138.44 125.893 136.42 133.11 136.195 140.779C135.971 145.741 135.971 150.251 135.522 154.988C135.297 154.988 135.073 154.988 134.624 154.988C129.91 157.469 125.196 159.95 120.483 162.656C121.38 157.469 122.503 152.281 123.176 147.094C124.299 138.298 121.156 130.178 121.156 121.607C121.156 120.705 121.156 119.803 121.38 118.901C126.768 108.977 129.461 94.9933 137.318 86.8737L137.542 86.6482C140.46 83.9416 143.827 81.9117 148.316 81.0096C150.337 80.5585 152.357 79.8819 154.153 78.9797C155.05 79.6563 155.948 78.7541 156.173 77.852C159.54 76.0476 162.682 74.0177 166.723 73.1155C177.946 70.6346 188.496 70.8601 199.944 69.9579C203.984 69.7324 207.576 68.6047 211.616 67.928C216.105 67.2514 219.921 67.7025 224.411 67.7025C225.982 67.7025 227.553 67.7025 229.125 67.7025C225.533 70.8601 221.942 73.7922 218.35 76.7242C215.432 78.9797 212.963 82.5884 209.147 83.7161C208.698 83.0395 208.922 83.7161 209.371 83.9416ZM356.173 88.0014C356.173 86.8737 354.377 86.8737 354.377 88.0014C354.826 94.0911 355.275 100.181 355.948 106.27C351.683 103.564 347.643 100.181 342.929 98.3764C327.665 93.1889 311.504 95.4444 296.016 96.5721C288.608 97.0232 284.119 96.3465 277.385 93.4145C270.875 90.7079 265.039 87.5503 257.856 86.1971C249.775 84.3927 241.695 84.1672 233.838 84.3927C234.287 83.9416 234.736 83.7161 235.185 83.265C241.246 78.5286 247.082 73.1155 252.918 67.928C254.04 68.1536 255.163 68.3791 256.509 68.8302C269.08 72.2134 280.752 82.8139 294.22 83.0395C302.301 83.0395 311.055 82.3628 319.136 81.4607C329.012 80.3329 336.869 81.0096 346.521 82.3628C356.173 83.4906 361.111 87.0992 368.967 92.5123C370.988 93.8655 373.008 94.7677 375.028 95.4444C375.028 100.406 374.579 105.368 374.13 110.33C370.988 110.105 367.845 110.105 364.702 109.879C362.458 109.654 360.213 108.751 358.193 107.849C357.295 100.857 356.622 94.3166 356.173 88.0014ZM357.295 121.607C357.52 124.539 357.744 127.472 357.968 130.629C354.153 128.374 350.561 127.697 346.296 127.246C345.398 120.48 344.276 113.713 342.929 106.947C345.847 108.3 348.541 110.33 351.908 112.586C353.479 113.713 355.05 114.39 356.622 115.067C356.846 117.322 357.071 119.578 357.295 121.607ZM345.847 136.268C347.194 146.192 348.99 155.664 350.112 165.588C345.398 160.852 340.46 159.95 334.175 157.92C331.93 148.898 330.584 139.876 329.012 130.855C332.379 131.531 335.746 132.434 339.338 133.787C341.358 134.463 343.378 134.914 345.623 135.366C345.847 135.817 345.847 136.042 345.847 136.268ZM314.422 218.817C314.422 219.268 315.095 219.268 315.095 218.817C315.32 216.11 315.32 213.178 315.095 210.246C316.891 211.825 318.238 213.855 318.911 216.11C321.156 226.034 318.687 235.281 312.851 243.175C309.484 247.686 308.81 251.069 307.912 256.708C307.239 260.993 307.463 265.279 305.668 269.113C303.199 274.526 297.362 281.067 292.424 284.45C285.915 288.735 279.854 294.825 271.549 295.05C261.223 295.276 252.245 289.637 245.062 282.646C237.205 274.977 236.532 265.279 223.962 263.925C216.779 263.023 209.371 266.181 202.188 267.083C198.821 267.534 192.312 269.564 192.312 265.955C192.312 262.572 197.25 260.542 199.495 258.061C203.76 253.55 205.555 248.363 207.8 242.95C210.943 235.056 216.105 230.771 220.595 224.23C225.533 217.012 223.288 208.442 222.391 200.097C222.615 200.097 222.615 199.871 222.615 199.645C223.513 197.616 223.288 197.39 225.758 196.939C229.798 195.811 227.329 197.39 229.573 199.871C230.696 201.224 231.145 203.254 232.267 204.833C234.512 207.765 238.103 210.923 242.144 210.472C245.96 210.02 248.204 206.863 250.673 204.382C259.876 195.811 268.631 198.969 279.405 200.999C283.221 201.675 288.833 202.352 294.669 203.48C295.567 209.118 296.914 214.757 297.811 220.396C296.465 219.268 295.118 218.366 293.546 217.689C289.057 215.434 281.201 216.336 276.487 217.012C269.753 218.14 266.386 221.072 259.652 218.591C249.775 215.208 239.45 218.14 232.492 225.583C229.798 227.838 227.553 231.222 225.309 233.703C222.391 236.86 219.697 239.341 219.024 243.626C218.575 247.01 219.024 249.716 222.166 251.521C224.635 253.099 230.471 251.295 233.165 251.746C241.021 252.874 242.368 254.227 245.286 259.866C248.878 266.858 252.694 282.871 261.223 285.127C267.733 286.931 273.569 281.292 278.732 278.586C283.894 275.879 289.282 274.526 292.649 269.564C296.465 263.925 296.016 256.257 298.934 250.167C301.178 245.656 303.648 242.273 304.994 237.311C306.341 232.124 303.872 226.485 299.832 222.2C299.158 219.042 298.485 216.11 297.811 213.178C297.138 210.021 296.465 206.863 295.791 203.705C301.627 204.833 307.688 206.412 311.953 209.118C313.524 212.05 313.973 215.434 314.422 218.817ZM289.955 155.439C294.669 154.311 299.383 153.409 304.545 153.86C306.341 160.852 307.463 167.844 308.361 174.836C306.566 174.159 304.545 173.482 302.525 173.482C299.383 173.257 296.689 174.159 293.546 174.159C293.322 167.618 292.424 160.852 289.955 155.439ZM293.771 191.977C293.995 193.105 293.995 194.232 294.22 195.36C291.975 195.135 289.731 194.909 287.486 194.684C279.854 193.781 270.651 189.722 263.019 191.526C259.428 192.428 255.163 194.232 252.02 196.262C250.673 197.165 249.775 198.292 248.653 199.194C247.531 200.322 246.633 201.224 245.735 202.352C242.368 201.45 238.777 200.322 235.41 199.42C232.043 196.713 233.165 190.173 227.329 189.496C224.86 189.27 223.064 190.398 221.942 191.977C221.493 191.751 221.044 191.977 220.819 192.428C220.595 193.556 220.595 194.684 220.37 195.811C220.146 196.713 220.146 197.39 220.146 198.292C220.146 198.518 220.146 198.743 220.37 198.969C220.146 202.352 220.37 205.735 219.921 209.569C219.248 216.336 218.126 219.719 213.187 224.681C210.269 227.613 207.8 229.643 205.555 233.251C200.393 241.371 197.026 249.265 189.618 255.58C185.578 258.963 180.864 261.67 182.66 267.534C186.925 281.969 213.187 268.436 222.166 269.113C232.94 269.79 237.43 281.743 243.939 289.412C249.775 296.404 255.163 300.238 264.141 302.042C270.651 303.396 276.936 303.621 282.997 300.238C289.057 296.855 296.689 291.216 301.627 286.254C302.525 285.127 303.648 283.999 304.545 282.871C304.77 283.548 305.219 284.224 306.117 284.675C311.055 286.254 315.544 289.637 319.809 293.021C316.218 298.885 313.973 297.306 309.708 299.787C305.892 302.268 301.852 305.651 297.811 307.681C293.771 309.711 289.282 310.162 285.241 311.741C281.201 313.319 277.834 315.575 273.344 316.477C266.162 318.056 261.448 316.703 255.612 313.319C253.591 312.192 252.02 311.29 249.775 310.387C245.511 309.034 240.797 309.711 236.981 307.004C232.94 304.072 232.716 301.14 230.022 297.08C226.655 292.118 222.391 288.735 217.003 286.254C203.535 279.939 194.108 277.684 179.068 279.488C173.906 280.165 165.151 283.999 165.825 273.624C166.049 269.113 173.906 263.249 176.599 259.866C180.415 254.904 185.802 249.942 189.169 244.754C192.087 240.469 193.434 234.154 195.006 229.192C197.026 222.876 200.168 217.238 202.188 211.148C206.902 197.39 199.944 179.798 203.76 165.137C203.984 165.137 203.984 164.912 204.209 164.912C207.351 160.626 208.698 155.89 216.554 160.852C218.575 162.205 220.146 165.588 221.942 167.167C223.962 168.746 226.431 169.423 228.676 170.776C232.267 172.806 235.41 175.738 239.001 177.542C243.266 180.023 248.429 181.602 253.591 181.151C262.121 180.249 267.284 173.934 276.487 175.061C281.874 175.738 286.812 178.219 291.975 179.798C292.873 184.083 293.098 187.917 293.771 191.977ZM301.178 234.605C301.178 235.056 301.852 234.83 301.852 234.605C301.852 233.928 301.852 233.251 301.852 232.575C302.076 233.251 302.301 233.928 302.301 234.605C302.525 236.635 300.505 240.469 299.607 242.048C297.811 245.431 295.567 248.363 293.995 251.746C291.751 256.482 290.628 264.377 286.364 267.309C283.446 269.338 278.956 269.79 275.589 271.368C272.671 272.722 269.753 274.977 266.61 275.203C260.999 275.654 264.815 276.105 261.897 273.173C256.509 268.211 252.02 260.091 247.755 254.001C243.715 248.363 240.572 247.235 233.838 247.235C228.227 247.235 225.533 249.942 225.982 242.499C226.431 236.635 227.104 237.311 230.471 233.251C231.818 231.673 233.165 230.094 234.736 228.29C239.001 225.357 242.593 222.651 247.98 221.974C254.265 221.072 258.53 224.681 264.366 225.357C272.447 226.034 279.63 219.268 288.384 220.847C291.751 221.523 297.362 225.583 300.505 229.868C300.729 231.447 300.954 233.026 301.178 234.605ZM295.567 195.586C295.118 192.654 294.669 189.722 294.444 186.564C294.22 184.76 293.995 182.73 293.995 180.474C295.342 180.7 296.465 180.925 297.811 181.151C303.199 181.602 305.219 182.73 309.708 184.534C310.382 189.27 311.055 194.007 311.728 198.743C306.566 196.939 300.954 196.037 295.567 195.586ZM309.933 175.738C309.035 168.52 307.912 161.303 306.117 154.311C307.912 154.537 309.708 155.213 311.504 155.89C314.422 157.243 317.564 158.597 320.483 159.95C322.727 166.942 325.196 173.934 326.543 181.151C322.503 179.798 318.238 178.895 314.422 177.542C313.075 177.091 311.504 176.415 309.933 175.738ZM304.545 148.673C303.872 146.417 302.974 144.162 302.076 141.906C301.627 141.004 300.281 141.455 300.729 142.357C301.627 144.387 302.301 146.643 302.974 148.673C302.076 148.673 301.178 148.447 300.505 148.447C293.995 148.447 289.506 149.124 283.445 151.154C274.467 154.086 266.61 154.311 257.407 151.605C250 149.349 243.49 146.417 236.756 142.583C241.695 140.328 246.633 136.493 251.122 133.787C253.142 132.434 255.163 131.08 256.958 129.276C258.081 129.953 259.203 130.404 260.55 130.855C268.631 133.561 274.467 131.306 282.099 129.727C288.384 128.374 294.22 129.727 300.505 129.276C304.321 129.05 307.688 128.825 311.055 128.825C313.524 136.493 315.769 144.387 318.013 152.281C313.749 150.477 309.259 149.124 304.545 148.673ZM319.809 152.507C317.564 144.613 315.32 136.719 312.851 128.825C315.32 128.825 318.013 129.05 320.707 129.501C323.176 129.953 325.645 130.404 327.89 130.855C329.012 137.17 330.135 143.711 331.257 150.026C331.706 152.507 332.155 155.213 332.604 157.694C328.339 156.341 324.074 154.537 320.034 152.958C320.034 152.732 319.809 152.507 319.809 152.507ZM337.318 125.893C334.175 125.216 331.032 124.539 327.89 123.863C326.992 119.352 325.87 114.616 324.523 110.33C324.298 109.428 322.727 109.879 322.952 110.781C324.298 115.067 325.421 119.352 326.319 123.637C321.156 122.735 315.544 122.059 310.382 122.284C309.259 118.901 307.912 115.743 306.341 112.36C305.892 111.458 304.545 112.135 304.994 113.262C306.341 116.194 307.463 119.352 308.586 122.284C296.913 122.51 285.69 122.284 274.242 122.961C260.101 123.863 251.347 112.811 238.552 109.879C245.96 105.368 253.816 101.534 256.734 93.1889C267.059 96.5721 276.711 104.692 287.71 104.917C294.669 104.917 302.076 104.241 309.035 103.564C317.34 102.662 324.074 103.113 332.379 104.241C335.522 104.692 338.215 105.368 340.685 106.496C342.256 113.488 343.154 120.48 344.276 127.472C342.256 126.795 340.011 126.569 337.318 125.893ZM116.442 124.314C115.993 134.238 115.993 143.485 114.422 153.409C113.524 158.371 112.626 163.107 111.504 167.844C106.341 171.001 101.403 173.934 96.2402 177.091C96.6891 171.904 97.3625 166.716 98.2604 161.754C98.4848 160.852 98.7093 159.95 98.7093 158.822C103.648 155.664 108.361 152.732 113.3 149.575C114.422 148.898 113.3 147.094 112.402 147.77C108.137 150.703 103.648 153.409 99.3827 156.116C100.729 149.575 101.852 143.034 102.974 136.268C107.464 133.336 111.728 130.178 115.993 126.795C117.116 125.893 115.544 124.539 114.646 125.442C111.055 128.374 107.239 131.08 103.423 133.561C103.423 133.336 103.423 133.336 103.423 133.11C104.097 128.148 103.423 123.186 102.75 118.45C107.912 114.841 113.524 111.232 119.36 108.751C117.565 113.939 116.667 119.126 116.442 124.314ZM108.361 183.181C107.912 185.887 107.688 188.819 107.239 191.751C102.974 194.458 98.9338 197.616 94.8934 200.548C94.22 200.999 93.5466 201.45 92.8732 202.126C94.4444 194.909 95.3423 187.241 96.0157 179.798C100.954 176.866 105.892 173.708 110.831 170.776C109.933 174.836 109.035 178.895 108.361 183.181ZM62.7946 161.078C63.468 160.626 64.1414 160.175 64.8148 159.724C70.6509 155.89 76.936 152.507 82.9966 148.898C86.1392 147.094 89.5062 145.064 92.6487 143.034C91.5264 149.8 89.9551 156.341 88.6083 163.107C85.4658 165.137 82.3232 166.942 79.1807 168.972C73.7935 172.355 68.1818 175.512 62.7946 178.896C60.9989 180.023 59.4276 181.151 57.6319 182.279C59.8765 175.287 61.4478 168.069 62.7946 161.078ZM61.2233 182.279C66.835 178.67 72.4467 175.287 78.2828 171.904C81.4253 169.874 84.7923 167.844 87.9349 165.814C87.2615 168.972 86.8126 172.129 86.1392 175.287C85.6902 178.219 85.2413 181.151 85.0168 184.083L84.7923 184.309C76.936 189.045 69.0797 193.781 61.6723 199.42C58.5297 201.901 55.3872 204.382 52.0202 206.412C53.1425 199.42 54.4893 192.428 56.734 185.662C58.0808 184.309 59.6521 183.181 61.2233 182.279ZM52.2447 208.442C56.0606 206.412 59.4276 203.48 62.7946 200.999C69.7531 195.586 77.1605 191.075 84.7923 186.564C83.8945 193.33 82.9966 200.097 80.9764 206.412C80.303 208.216 79.6296 210.021 78.7317 211.599C76.4871 213.178 74.0179 214.531 71.7733 216.11C64.1414 221.072 56.5095 225.583 48.6532 230.319C49.7755 223.102 50.6734 215.885 51.7957 208.667C51.7957 208.667 52.0202 208.667 52.2447 208.442ZM76.0381 215.885C76.0381 215.885 76.2626 215.885 76.2626 215.659C75.3647 217.012 74.4669 218.591 73.3445 219.944C73.3445 219.944 73.3445 220.17 73.1201 220.17C75.1403 219.944 78.0583 220.396 79.6296 220.621C81.4254 220.621 83.2211 220.621 85.0168 220.847C86.5881 218.591 88.1594 216.11 89.2817 213.404C90.404 210.697 91.3019 207.991 92.1998 205.284C93.771 204.156 95.3423 203.029 96.9136 201.901C100.281 199.42 103.648 196.939 107.015 194.458C106.79 196.939 106.341 199.645 105.892 202.126C109.035 201.224 112.402 200.548 115.544 199.871C115.993 196.262 116.442 192.428 116.891 188.819C117.34 188.594 117.565 188.368 118.013 188.143C119.136 187.692 118.238 185.887 117.116 186.338C117.565 181.376 118.013 176.414 118.911 171.678C119.36 169.423 119.809 167.393 120.258 165.363C125.421 162.431 130.359 159.499 135.746 156.792C135.522 159.499 135.297 162.431 134.624 165.363C133.053 173.934 130.808 182.279 129.461 190.849C129.012 193.33 128.788 195.586 128.563 198.067C131.257 197.841 133.726 197.616 136.42 197.39C136.869 191.751 137.318 186.113 138.44 180.7C139.562 174.385 140.909 168.295 141.807 161.754C142.48 162.205 142.929 162.656 143.603 163.107C147.643 165.588 151.235 168.295 155.275 170.776C155.948 171.227 156.622 171.678 157.295 172.129C156.622 177.768 155.275 183.406 153.479 189.496C152.806 191.977 152.357 194.458 151.908 196.939C155.05 196.939 158.417 196.713 161.56 196.713C163.356 189.947 164.478 182.955 164.927 176.64C169.192 178.67 173.457 180.249 177.946 180.023C178.171 180.023 178.395 180.023 178.844 179.798C178.619 181.602 178.395 183.406 178.171 185.211C177.497 189.045 177.497 192.879 177.273 196.939C180.191 196.939 183.109 197.165 186.027 197.165C186.027 196.488 186.027 195.811 186.027 195.135C186.476 188.594 188.047 181.828 187.823 175.061C184.905 174.385 182.211 173.257 179.517 172.129C179.517 173.257 179.293 174.385 179.293 175.512C174.804 173.257 169.865 171.001 165.151 168.746C164.927 167.393 164.927 166.039 164.703 164.686C162.458 163.559 160.438 162.431 158.193 161.078C158.193 162.431 158.193 163.784 158.193 164.912C156.846 164.235 155.499 163.333 154.377 162.656C151.235 160.626 146.745 157.694 142.705 156.567C142.705 155.213 142.705 153.86 142.48 152.507C141.807 152.056 140.909 151.83 140.236 151.379C138.664 150.703 139.787 148.222 141.358 148.673C141.582 148.673 141.807 148.898 142.031 148.898C141.358 145.064 140.685 141.455 140.685 137.621C140.685 136.944 140.685 136.042 140.685 135.14C145.398 126.569 147.643 114.616 154.377 107.624L154.602 107.398C157.071 104.917 159.989 103.338 163.805 102.436C165.6 101.985 167.172 101.308 168.743 100.632C169.416 101.083 170.314 100.406 170.539 99.7297C173.457 98.1509 176.15 96.3465 179.517 95.6699C189.169 93.64 198.148 93.64 207.8 92.9634C211.167 92.7378 214.31 91.8357 217.677 91.159C219.248 90.9335 220.819 90.9335 222.391 90.9335C220.819 92.0612 219.248 92.9634 217.677 94.0911C216.554 94.0911 215.881 94.3166 215.432 95.6699C215.208 96.3465 215.881 96.7976 216.554 96.5721C219.472 94.9933 222.166 92.9634 224.86 90.9335C225.982 90.9335 227.329 90.9335 228.676 91.159C238.328 91.159 245.96 90.0313 255.612 92.5123C252.469 101.083 243.041 104.466 235.41 108.977C232.492 108.751 229.573 108.751 226.431 109.203C217.452 110.105 210.045 107.849 201.291 107.173C192.985 106.496 186.027 110.33 179.293 114.616C177.722 115.743 174.355 116.42 172.783 117.773C170.539 119.578 169.192 122.059 167.845 124.539C160.662 132.885 157.969 143.034 157.744 154.311C159.54 154.988 161.111 155.665 162.907 156.341C162.458 152.958 162.233 149.575 162.682 145.966C163.356 141.906 164.254 138.072 165.376 134.689C165.825 134.689 166.049 134.463 166.498 134.238C168.967 131.531 170.539 127.923 173.232 125.216C176.15 122.058 176.375 122.961 179.742 121.156C189.169 115.969 196.352 113.939 207.127 115.969C211.616 116.871 215.881 117.548 220.37 117.548C222.391 117.548 224.411 117.322 226.431 116.871C225.533 118.224 224.86 119.803 224.411 121.607C224.411 122.059 224.86 122.284 225.084 121.833C226.206 119.803 227.553 117.999 229.125 116.645C230.92 116.42 232.716 116.42 234.512 116.871C242.144 118.45 248.204 124.539 254.938 128.374C252.694 130.404 249.775 132.208 247.306 133.787C245.96 134.689 238.552 139.651 234.512 141.455C227.553 137.17 220.595 132.208 213.412 128.599C208.698 126.118 201.74 125.893 196.801 127.02C195.903 127.246 195.006 127.697 194.108 128.148C182.435 131.306 179.293 142.809 178.395 153.86C178.171 157.243 178.619 160.852 179.068 164.235C181.538 165.588 184.007 166.716 186.476 168.069C184.456 158.597 182.884 149.124 186.027 140.779C186.027 140.779 186.027 140.779 186.251 140.779C196.128 132.885 203.086 128.825 214.534 137.847C220.146 142.132 225.982 144.838 232.043 148.222C236.532 150.928 241.695 153.184 246.857 155.213C244.613 158.371 242.368 161.529 239.674 164.235C239.001 164.912 239.899 166.039 240.572 165.588C243.939 163.107 246.408 159.499 248.653 155.89C254.489 157.92 260.55 159.273 266.61 159.724C274.242 160.401 280.976 157.92 287.935 156.116C290.18 160.852 290.628 166.265 291.077 171.227C291.077 172.355 291.302 173.257 291.302 174.385C290.853 174.385 290.404 174.159 289.731 174.159C279.181 172.129 273.569 169.197 262.795 171.678C255.387 173.482 249.327 176.415 242.368 171.904C238.328 169.423 234.961 166.716 230.92 164.235C224.186 160.401 219.921 151.605 211.167 152.958C205.555 153.86 204.433 156.567 203.535 160.626C199.944 168.52 199.944 179.798 199.719 187.241C199.495 191.075 199.495 194.684 199.27 198.067C199.944 198.067 200.842 198.292 201.515 198.292C203.76 198.518 203.76 201.45 201.515 201.675C200.617 201.675 199.719 201.901 198.821 201.901C198.373 206.637 197.25 211.374 194.781 216.336C191.863 222.425 188.945 228.515 185.802 234.605C179.293 246.784 166.947 255.806 160.662 268.436C157.295 275.203 157.52 285.127 166.274 287.156C173.232 288.735 181.762 285.127 188.496 284.675C197.026 283.999 201.291 286.48 209.147 289.637C213.636 291.442 218.35 291.893 221.942 295.727C225.084 299.11 225.758 303.847 227.778 307.681C230.022 311.515 234.063 314.898 238.103 316.703C241.246 318.056 244.164 317.605 247.306 318.732C250.449 319.86 252.918 322.567 255.836 324.146C261.672 327.078 267.059 326.852 273.344 325.499C280.752 323.92 287.486 319.86 294.669 316.928C302.076 313.996 308.137 308.357 315.095 304.749C319.136 302.493 321.605 300.689 324.074 297.08C325.645 298.208 327.217 299.561 328.788 300.689C332.155 303.17 335.746 305.425 339.338 307.681C337.542 309.485 335.971 311.29 334.624 312.868C332.379 315.349 329.91 318.507 327.217 321.213C326.768 320.537 325.645 320.311 324.972 320.988C316.891 327.529 307.463 329.333 298.26 333.393C288.384 337.678 281.201 339.934 270.202 338.355C260.999 337.002 251.571 335.197 242.368 333.167C238.552 332.265 235.185 332.265 232.043 329.784C229.349 327.529 228.451 323.694 225.982 321.213C221.942 317.154 216.554 313.319 210.943 312.417C208.025 311.966 205.331 312.868 202.413 312.192C199.27 311.515 196.801 309.034 193.659 308.583C186.476 307.681 180.415 310.613 173.008 307.681C168.518 305.877 165.6 302.268 161.56 299.787C157.969 297.306 153.479 296.178 150.112 293.246C141.134 285.803 145.174 277.007 149.888 268.887C154.377 261.219 162.458 256.708 166.723 249.491C168.07 247.235 167.621 244.754 168.743 242.724C169.416 241.597 170.988 240.92 171.661 239.792C176.375 232.575 181.089 225.583 183.782 217.238C185.353 212.501 185.353 208.216 185.578 203.705C182.435 203.705 179.517 203.931 176.375 203.931C176.375 205.059 176.15 206.186 176.15 207.314C175.701 206.863 175.028 206.412 174.13 206.637C169.192 207.765 163.805 207.765 158.193 207.765C158.642 206.637 159.091 205.284 159.315 204.156C156.397 204.156 153.255 204.156 150.337 204.156C150.112 205.284 149.888 206.412 149.663 207.54C146.296 207.314 142.929 207.314 139.562 207.314C137.991 207.314 136.195 207.54 134.4 207.54C134.624 206.637 134.624 205.51 134.848 204.607C132.155 204.607 129.461 204.833 126.768 204.833C126.543 205.961 126.319 207.088 126.319 208.216C121.829 208.667 117.565 208.893 113.075 208.893V208.667C113.075 208.442 113.075 208.442 113.075 208.216C113.3 207.314 113.524 206.186 113.749 205.284C110.606 205.51 107.464 205.51 104.321 205.51C104.097 206.412 103.872 207.314 103.648 208.216C102.301 208.442 101.627 210.021 102.974 210.923C102.974 210.923 102.974 210.923 102.974 211.148C102.301 213.178 101.627 214.757 100.729 216.336C99.8316 216.787 99.1582 217.463 98.4848 217.915C93.9955 221.072 89.5062 224.23 84.7923 227.162C84.1189 227.613 83.4456 228.064 82.9966 228.515C81.6498 228.741 80.5275 229.192 79.1807 229.417C79.6296 228.741 80.0786 227.838 80.752 227.162C77.1605 226.936 73.569 226.26 70.4265 225.357C69.5286 227.387 68.8552 229.417 67.9573 231.447C62.3457 232.349 56.2851 233.026 51.1223 232.8C50.6734 232.8 50.2245 232.8 49.7755 232.575C58.9787 226.485 67.7329 221.523 76.0381 215.885ZM135.971 225.132C126.094 226.034 116.218 226.711 106.341 226.936C106.117 226.936 105.892 226.936 105.668 226.936C102.75 226.936 99.8316 226.936 96.9136 226.936C94.4444 226.936 91.7508 226.936 89.2817 226.711C89.5062 226.485 89.9551 226.26 90.1796 226.034C93.0976 224.004 96.0157 221.974 98.7093 220.17C98.4848 220.396 98.2604 220.847 98.0359 221.072C101.627 221.072 105.219 220.847 108.81 220.847C109.708 219.493 110.606 217.915 111.279 216.336C111.728 214.982 112.402 213.855 112.851 212.501C117.116 213.404 121.38 213.855 125.645 214.08C124.972 216.11 124.074 217.915 122.952 219.719C125.87 219.493 129.012 219.042 131.93 218.817C132.604 217.463 133.053 216.11 133.502 214.531C137.093 214.757 140.909 214.757 144.501 214.757C145.398 214.757 146.521 214.757 147.419 214.757C146.97 215.659 146.521 216.336 146.072 217.012C148.765 216.787 151.683 216.561 154.377 216.336C154.602 215.885 155.05 215.434 155.275 214.757C163.131 214.757 171.885 213.629 176.15 208.893C175.701 211.148 175.028 213.404 174.13 215.659C174.355 215.659 174.804 215.659 175.028 215.659C177.273 215.659 177.946 219.042 175.477 219.719C174.355 219.944 173.008 220.396 171.885 220.621C171.212 222.2 170.314 223.553 169.416 225.132C168.967 225.132 168.518 224.906 168.07 225.132C162.233 226.26 155.499 225.357 149.214 224.455C149.214 224.23 149.439 224.23 149.439 224.004C144.949 224.455 140.46 224.681 135.971 225.132ZM113.973 277.232C112.851 281.743 112.402 286.705 113.973 290.991C114.198 291.442 114.422 291.893 114.646 292.344C114.646 292.344 114.422 292.344 114.422 292.569C110.831 296.178 107.463 299.561 104.096 303.17C102.75 297.757 101.403 292.344 102.525 287.156C103.872 281.518 107.464 276.781 108.361 270.692C108.81 268.211 109.259 265.955 109.708 263.925C110.382 262.572 111.055 261.219 111.504 259.64C111.504 259.415 111.504 259.189 111.279 258.963C112.402 256.257 113.524 253.55 115.32 250.393C118.013 245.431 120.034 240.469 122.054 235.281C125.645 234.83 129.012 234.379 132.604 234.379C134.4 234.379 136.195 234.605 137.991 234.605C137.542 235.958 137.093 237.311 136.42 238.665C133.726 245.882 129.012 248.137 124.523 254.227C120.258 260.317 115.993 270.241 113.973 277.232ZM99.8316 318.732C100.505 320.762 101.178 322.792 102.301 324.371C98.9338 329.333 95.5668 334.069 91.9753 338.58C89.9551 337.678 87.9349 337.227 85.9147 335.197C83.4455 332.942 82.7722 330.912 82.3232 328.431C82.7722 327.98 83.4455 327.303 83.8945 326.852C88.8327 321.89 93.5466 316.928 98.2604 311.966C98.7093 314.222 99.1582 316.477 99.8316 318.732ZM103.423 325.724C104.545 326.852 105.668 327.754 107.464 328.656C110.831 330.235 114.198 330.912 117.34 332.942C113.075 337.453 108.361 341.512 103.648 345.798C100.729 343.542 97.8114 341.512 95.1178 339.934C94.6689 339.708 94.22 339.483 93.771 339.257C97.138 334.972 100.281 330.461 103.423 325.724ZM82.9966 324.822C82.5477 325.273 82.0987 325.724 81.6498 326.175C81.4253 325.273 81.4253 324.146 81.2009 323.243C80.0785 318.281 78.2828 312.868 77.3849 307.455C83.4455 301.591 89.2817 295.727 94.6689 289.412C94.6689 290.54 94.6689 291.893 94.6689 293.246C95.1178 298.659 96.2402 304.298 97.587 309.936C92.8732 315.124 87.9349 320.086 82.9966 324.822ZM77.1605 295.727C77.3849 294.374 77.8339 293.021 78.2828 291.893C83.67 287.156 89.2817 282.42 94.6689 277.684C96.2402 276.105 98.2604 274.752 100.056 273.398C99.6072 274.526 99.3827 275.654 98.9338 276.556C97.3625 280.39 95.7912 283.097 95.1178 286.029C89.2817 292.795 83.2211 299.11 76.936 305.2C76.4871 302.042 76.4871 298.885 77.1605 295.727ZM66.6105 300.238C61.2233 305.651 55.6117 310.838 50 316.026C49.5511 312.192 49.3266 308.583 50.2245 304.974C52.0202 297.306 56.734 290.991 57.8563 282.871C57.8563 282.42 58.0808 281.743 58.0808 281.292C64.8148 275.428 71.3243 269.338 77.8339 263.474C75.8137 270.015 75.5892 277.007 72.6711 283.548C69.9775 289.637 67.9573 293.246 67.7329 299.11C67.5084 299.561 67.0595 299.787 66.6105 300.238ZM75.1403 238.213C80.5275 237.988 85.6902 237.537 90.853 236.86C90.1796 238.213 89.7306 239.567 89.0572 240.92C81.2009 247.686 73.1201 254.227 64.8148 260.317C65.4882 258.738 66.3861 256.934 67.2839 255.355C70.202 249.716 72.6711 244.078 75.1403 238.213ZM63.468 263.925C71.5488 258.287 79.1807 251.972 86.5881 245.656C84.5679 249.716 82.3232 253.55 80.303 257.61C80.0786 257.836 80.0785 258.287 79.8541 258.512C72.8956 264.828 65.9371 270.917 58.7542 277.007C59.6521 272.496 60.9989 268.436 62.7946 264.377C63.2435 264.151 63.2435 264.151 63.468 263.925ZM83.8945 276.556C85.2413 267.083 87.7104 260.993 91.9753 252.648C92.8732 250.844 93.771 249.265 94.4444 247.461C95.5668 246.333 96.6891 245.205 97.8114 244.078C98.7093 243.175 97.587 242.048 96.6891 242.499C97.587 240.243 98.4848 238.213 99.3827 235.958C104.321 235.507 109.035 235.281 113.973 235.507C114.198 235.507 114.422 235.507 114.646 235.507C111.953 242.048 108.586 248.137 105.219 254.227C102.525 259.189 102.076 264.377 100.954 269.564C97.138 272.496 93.5466 276.105 89.9551 279.262C86.5881 282.194 83.2211 285.127 79.6296 288.059C81.4254 284.45 83.2211 280.841 83.8945 276.556ZM62.3457 243.626C56.0606 249.04 49.5511 254.001 43.0415 259.189C42.1437 259.866 41.2458 260.542 40.3479 261.219C40.5724 260.768 40.7969 260.091 41.0213 259.64C44.1639 251.972 46.1841 243.852 47.5309 235.732C49.5511 236.635 51.7957 237.537 54.2649 237.762C57.8563 238.213 61.6723 238.439 65.4882 238.439C64.8148 240.018 64.1414 241.371 63.468 242.724C63.0191 242.95 62.7946 243.175 62.3457 243.626ZM29.798 276.556C32.716 272.722 35.4096 269.338 37.8788 265.73C39.2256 264.828 40.5724 263.925 41.4702 263.023C48.2043 258.287 54.7138 253.099 60.7744 247.912C60.7744 247.912 60.7744 247.912 60.9989 247.686C58.7542 252.197 56.2851 256.482 53.8159 260.993C52.0202 264.151 51.1223 267.309 50.2245 270.692C41.9192 276.33 33.8384 282.194 25.5331 287.833C26.2065 283.548 27.1044 280.39 29.798 276.556ZM43.7149 294.148C40.7968 300.689 38.7767 305.2 39.6745 313.545C39.899 317.154 40.5724 320.762 41.2458 324.371C39.2256 326.175 37.4298 328.205 35.1852 329.784C33.165 331.589 30.9203 332.716 28.4512 333.618C28.0022 328.882 27.5533 324.146 27.3288 319.86C27.1044 316.477 26.6554 313.094 26.431 309.936C32.0426 304.523 37.8788 299.336 43.7149 294.148ZM28.6756 335.648C30.4714 334.746 32.4916 334.069 34.0628 332.942C36.7564 331.137 39.0011 328.882 41.4702 326.401C42.1436 329.784 42.817 333.167 43.7149 336.325C42.5926 337.453 41.6947 338.355 40.5724 339.483C37.2054 342.866 34.0628 346.474 30.9203 350.083C29.798 345.347 29.1246 340.61 28.6756 335.648ZM50.2245 318.056C56.2851 312.643 61.8967 307.004 67.7329 301.366C67.7329 301.817 67.7329 302.493 67.7329 302.944C67.9573 306.102 68.4063 309.26 69.0797 312.417C66.3861 314.898 63.6925 317.379 60.9989 320.086C58.0808 322.567 55.3872 325.273 52.4691 327.98C51.7957 324.822 50.8979 321.439 50.2245 318.056ZM54.7138 336.776C54.2649 334.521 53.5915 332.491 53.1425 330.01C56.0606 327.303 58.7542 324.822 61.6723 322.116C64.3659 319.635 67.0595 317.154 69.5286 314.673C70.6509 320.762 72.2222 326.852 73.7935 332.491C73.7935 332.942 74.0179 333.167 74.0179 333.393C71.7733 335.648 69.3041 337.678 67.0595 339.934C64.3659 342.415 61.6723 344.896 58.7542 347.151C58.5297 347.151 58.3053 347.602 57.8563 347.828C55.6117 344.896 55.8361 341.512 54.7138 336.776ZM82.5477 352.564C84.5679 350.534 86.3636 348.504 88.1594 346.474C90.6285 347.377 92.8732 348.279 95.3423 350.083C96.0157 350.534 96.9136 351.211 97.587 351.662C97.138 351.887 96.9136 352.338 96.4646 352.564C91.9753 356.624 87.7104 360.684 83.4455 364.743C81.2009 362.939 78.9562 361.135 76.4871 359.556C78.2828 357.075 80.303 354.819 82.5477 352.564ZM120.258 359.781L120.034 359.556C124.074 354.143 127.666 348.504 131.481 342.866C133.726 344.444 135.746 346.023 138.215 347.151C134.4 352.339 130.359 357.3 126.543 362.488C124.299 361.811 122.278 360.909 120.258 359.781ZM118.462 358.654C115.993 356.849 114.198 354.368 111.728 352.339C109.708 350.76 107.463 348.73 105.219 346.925C109.933 342.64 114.646 338.58 118.911 334.069C121.605 336.099 124.523 337.904 127.217 339.934C128.114 340.61 129.012 341.287 129.91 341.964C126.094 347.602 122.278 353.015 118.462 358.654ZM117.789 324.822C114.871 323.243 112.402 323.243 109.933 320.762C106.566 317.605 106.79 314.898 105.892 310.613C105.443 308.809 104.994 307.004 104.545 305.2C108.137 301.591 111.728 297.757 115.32 294.148C118.911 301.817 125.421 308.809 130.359 315.575C129.237 317.154 128.114 318.958 126.992 320.762C125.645 323.243 123.85 325.499 122.054 327.529C120.707 326.627 119.36 325.724 117.789 324.822ZM340.46 378.502C340.236 377.374 338.44 377.825 338.664 378.953C338.889 380.08 339.113 381.208 339.338 382.336C337.991 382.787 336.644 383.238 335.073 383.915C331.481 385.719 328.114 387.749 324.747 389.779C323.625 384.366 322.503 378.953 320.931 373.54C323.401 371.961 325.421 369.931 328.339 369.029C332.828 367.224 336.195 368.352 340.685 368.578C346.745 369.029 350.786 366.548 355.724 363.39C357.52 362.262 359.315 361.135 361.335 360.007C363.58 365.871 365.6 371.735 367.396 377.825C367.172 378.051 366.723 378.276 366.498 378.502C358.642 383.012 349.663 380.306 341.133 382.11C340.909 380.983 340.685 379.629 340.46 378.502ZM291.302 402.86C290.628 396.996 289.955 391.358 289.057 385.719C293.771 384.591 298.485 382.561 303.199 381.434C303.648 381.208 304.096 381.208 304.545 380.983C306.117 386.17 306.566 392.034 306.566 397.673C301.627 399.026 296.913 401.281 291.751 402.86C291.751 402.86 291.526 402.86 291.302 402.86ZM242.144 364.518C247.755 364.743 253.142 365.194 258.305 364.067C261.223 365.646 262.795 365.871 265.713 365.42C266.386 369.254 266.61 373.314 266.835 377.374C262.795 377.374 258.754 378.276 254.714 379.178C254.489 379.178 254.265 378.953 254.04 378.953C252.918 378.953 251.571 378.953 250.449 378.953C250.449 376.021 250.449 372.863 250.449 369.931C250.449 368.803 248.878 368.803 248.878 369.931C248.878 372.863 248.878 376.021 248.878 378.953C246.633 378.953 244.388 378.727 242.144 377.825C239.45 376.697 236.307 374.893 233.614 373.314C232.267 372.637 231.594 371.961 229.349 371.284C229.349 368.803 229.349 366.097 229.349 363.616C234.063 364.743 237.43 364.518 242.144 364.518ZM234.736 382.336C239.899 384.817 243.939 385.042 248.653 384.366C248.653 390.455 248.653 396.771 248.653 402.86C245.735 402.86 243.041 402.635 240.123 401.507C236.981 400.154 233.389 398.124 230.471 396.32C230.247 396.32 229.573 396.094 229.573 396.094C229.573 390.681 229.573 385.268 229.573 379.855C231.818 380.757 233.165 381.659 234.736 382.336ZM250.673 384.14C252.02 383.915 253.367 383.689 254.714 383.464C255.163 383.464 255.612 383.012 255.836 382.787C259.876 383.012 265.713 383.012 266.835 383.012C267.059 383.012 267.059 383.012 267.284 383.012C267.284 384.591 267.508 386.17 267.508 387.749C267.733 392.26 268.182 396.771 268.631 401.056C263.917 401.281 259.428 402.184 254.938 403.311C254.714 403.311 254.489 403.086 254.265 403.086C253.142 403.086 252.02 403.086 250.898 403.086C250.673 396.771 250.673 390.455 250.673 384.14ZM269.08 384.591C269.08 384.14 269.08 383.689 269.08 383.464C274.018 384.366 278.507 386.847 283.67 386.621C285.017 386.621 286.139 386.396 287.486 386.17C288.384 391.809 289.057 397.673 289.731 403.311C284.119 404.214 280.976 402.184 275.14 401.507C273.569 401.281 271.998 401.281 270.426 401.281C269.753 395.643 269.304 390.23 269.08 384.591ZM306.117 380.531C310.83 379.178 315.544 377.148 319.809 374.442C321.156 379.855 322.503 385.268 323.401 390.681C318.687 393.387 313.973 395.868 308.137 397.222C307.912 391.583 307.688 385.719 306.117 380.531ZM350.337 357.977C342.031 362.714 332.379 358.203 323.625 362.714C316.442 366.322 310.83 370.833 303.199 373.314C302.974 372.863 302.525 372.412 302.301 371.961C301.627 371.059 300.281 371.961 300.954 372.863C301.178 373.314 301.403 373.54 301.627 373.991C301.178 374.216 300.505 374.216 300.056 374.442C295.567 375.57 291.302 377.825 286.812 378.953C280.752 380.757 277.834 378.727 272.222 377.825C271.1 377.599 269.977 377.599 268.855 377.599C268.631 373.54 268.182 369.48 267.733 365.42C268.855 365.195 269.977 364.969 271.549 364.518C278.283 362.714 287.037 363.841 294.22 363.616C298.709 363.39 302.974 362.714 307.239 360.684C313.3 357.752 316.218 352.339 322.952 350.534C326.768 349.632 331.032 349.858 334.624 348.279C339.562 346.249 347.643 341.963 351.683 338.58C356.846 334.295 359.315 327.754 361.784 321.665C366.274 324.822 371.437 327.98 376.375 330.01C371.212 341.738 361.784 351.211 350.337 357.977ZM225.084 360.007C226.431 361.135 227.553 362.037 228.676 362.488C228.676 362.714 228.676 362.714 228.676 362.939C228.676 365.42 228.676 367.675 228.676 370.156C226.431 369.029 223.962 368.352 221.493 367.675C221.493 364.067 221.493 360.233 221.493 356.624C222.615 357.752 223.962 358.879 225.084 360.007ZM221.493 375.795C224.186 376.472 226.431 377.599 228.676 378.727C228.676 384.14 228.676 389.553 228.676 394.966C225.982 393.387 223.288 392.26 220.595 391.358C220.819 386.17 221.044 380.983 221.044 375.795C221.268 375.795 221.268 375.795 221.493 375.795ZM201.74 377.148C201.515 380.757 201.291 384.366 200.842 387.974C199.719 387.749 198.373 387.749 197.25 387.523C197.475 382.561 197.475 377.599 196.577 372.863C198.148 373.089 199.944 373.314 201.74 373.54C201.74 374.667 201.74 376.021 201.74 377.148ZM198.821 397.447C199.27 397.447 199.495 397.447 199.944 397.673C199.719 401.056 199.495 404.665 199.495 408.048C199.495 409.401 199.495 410.754 199.495 412.108C198.597 411.882 197.475 411.882 196.577 411.656C196.577 410.303 196.577 408.724 196.577 407.371C196.352 403.988 196.577 400.605 196.801 397.222C197.475 397.447 198.148 397.447 198.821 397.447ZM205.107 412.784C203.76 412.559 202.413 412.559 201.066 412.333C201.066 408.724 201.066 405.341 201.291 401.733C201.291 400.379 201.515 399.026 201.515 397.673C206.453 398.124 211.167 398.124 216.105 399.252C217.003 399.477 217.901 399.703 218.799 400.154C218.575 404.214 218.35 408.273 217.901 412.559C217.901 413.686 217.677 414.814 217.677 415.942C213.636 414.363 209.82 413.461 205.107 412.784ZM220.146 400.83C223.064 402.184 225.758 403.762 228.676 405.341C228.676 410.754 228.676 416.167 228.676 421.58C228.227 421.355 227.778 421.129 227.329 420.904C224.635 419.325 221.942 417.972 219.472 416.844C219.697 411.431 219.921 406.243 220.146 400.83ZM229.573 406.243C231.818 406.469 231.145 406.695 231.594 407.146C237.879 410.303 242.817 410.303 248.429 409.401C248.429 415.716 248.429 422.031 248.429 428.572C244.837 428.572 241.021 428.347 237.43 426.993C234.736 425.866 233.838 424.287 229.349 422.934C229.573 417.295 229.573 411.882 229.573 406.243ZM250.898 409.175C252.245 408.95 253.591 408.724 254.938 408.499C255.612 408.499 256.061 408.048 256.285 407.822C260.999 408.048 267.957 408.048 269.08 408.048H269.304C269.529 410.529 269.753 413.01 270.202 415.491C270.651 419.099 270.875 422.934 271.1 426.542C265.713 426.768 260.325 427.896 255.163 429.023C254.938 429.023 254.714 428.798 254.265 428.798C253.142 428.798 252.02 428.798 250.898 428.798C250.898 422.257 250.898 415.716 250.898 409.175ZM271.549 412.108C271.324 410.754 271.324 409.401 271.1 408.273C276.936 409.401 282.548 412.333 288.608 412.108C289.282 412.108 289.955 411.882 290.404 411.882C290.628 414.814 290.853 417.972 291.077 420.904C291.302 423.61 291.302 426.317 291.302 429.249C287.037 429.249 283.446 427.67 278.283 426.993C276.263 426.768 274.467 426.542 272.447 426.542C272.447 421.58 271.998 416.844 271.549 412.108ZM328.563 413.01C327.89 408.724 327.441 404.439 326.768 400.154C328.339 399.252 329.91 398.575 331.257 397.673C334.624 395.643 337.318 392.936 341.133 391.583H341.358C342.48 397.222 343.603 402.86 344.725 408.273C339.338 411.205 334.399 414.363 329.237 417.069C329.012 415.716 328.788 414.363 328.563 413.01ZM371.885 385.719C372.334 385.493 372.783 385.268 373.232 385.042C377.273 382.561 382.211 379.629 386.7 376.246C388.496 382.561 390.067 388.877 391.863 395.192C389.394 396.996 386.7 398.575 384.007 400.154C381.762 401.507 379.293 402.184 376.824 402.86C375.028 397.222 373.457 391.583 371.885 385.719ZM418.799 359.556C417.452 352.339 416.105 345.121 414.534 337.904C413.412 333.393 412.289 328.882 411.167 324.146C411.167 323.92 411.167 323.92 411.392 323.694C413.636 318.507 416.105 313.545 418.799 308.583C421.268 316.928 423.513 325.499 425.982 333.844C426.206 334.521 426.431 335.423 426.655 336.099C425.309 339.257 424.411 342.415 423.737 346.023C422.839 351.662 421.268 356.849 419.248 361.586C419.023 360.909 418.799 360.233 418.799 359.556ZM428.002 333.167C427.553 331.588 426.88 329.784 426.431 328.205C424.186 320.762 422.166 313.319 419.921 306.102C420.37 305.2 420.819 304.072 421.268 303.17C423.737 297.982 427.778 291.442 427.778 285.578C427.778 284.224 426.655 283.548 425.533 283.548C426.431 281.067 427.553 278.36 428.451 275.879C429.573 279.713 430.696 283.548 431.369 287.608C432.491 294.599 432.267 301.591 432.716 308.809C432.94 313.094 433.614 317.379 434.512 321.665C432.043 325.499 429.798 329.333 428.002 333.167ZM43.7149 375.118C40.3479 370.608 36.083 366.548 34.0628 361.135C32.9405 358.428 32.2671 355.496 31.3692 352.564C34.5118 349.181 37.4298 345.572 40.5724 342.189C41.6947 341.061 42.8171 339.934 44.1639 338.58C44.8373 341.512 45.7351 344.67 46.4085 347.377C47.0819 350.083 48.2043 352.564 49.5511 354.819C49.5511 355.045 49.5511 355.271 49.5511 355.496C49.5511 355.947 50 356.398 50.4489 356.173C52.0202 357.977 54.0404 359.781 56.5095 360.909C60.3255 362.714 64.3659 363.841 67.9573 365.646C63.9169 370.608 59.8765 375.569 55.6117 380.306C56.5095 377.599 57.8563 374.893 58.9787 374.442C59.4276 374.442 59.2031 373.765 58.9787 373.765L57.1829 373.991C56.9585 373.991 56.734 374.216 56.734 374.442C55.6117 378.05 54.0404 380.983 52.2447 384.366C51.5713 385.268 52.9181 386.396 53.8159 385.493C59.6521 379.855 65.0393 373.314 70.202 366.999C70.4265 367.224 70.6509 367.224 70.8754 367.45C72.6711 368.803 74.4669 369.931 76.4871 371.284C75.5892 372.186 74.6913 372.863 73.7935 373.765C68.1818 379.404 61.4478 384.817 57.4074 391.583C56.5095 390.906 55.8361 390.23 54.9383 389.553C50.4489 385.493 47.5309 380.08 43.7149 375.118ZM58.9787 392.936C60.7744 391.132 62.5701 389.553 63.468 387.523C67.9573 382.336 72.8956 377.374 77.8339 372.412C79.6296 373.765 81.4254 374.893 83.2211 376.246C87.9349 379.629 92.1998 382.787 96.9136 385.493C95.7912 386.847 94.6689 388.2 93.5466 389.553C91.0774 392.485 88.3838 394.966 85.9147 397.898C84.5679 399.477 83.4456 401.056 82.3232 402.635C81.8743 402.635 81.6498 402.409 81.2009 402.409C82.3232 400.154 84.3434 398.124 85.9147 397.447C86.3636 397.222 85.9147 396.545 85.6902 396.771C83.67 397.447 81.4253 399.703 79.8541 402.184C72.6711 400.154 65.4882 397.898 58.9787 392.936ZM124.074 417.295C115.993 413.235 108.586 409.176 100.056 406.469C102.076 404.439 103.872 401.958 105.443 399.928C107.239 397.447 109.708 394.515 110.606 391.583C113.973 392.936 117.34 394.515 120.483 396.094C118.462 399.026 116.442 402.184 114.871 405.567C114.422 406.469 115.32 407.371 116.218 406.92C118.687 405.792 120.483 404.214 122.278 401.733C122.503 401.281 122.054 400.83 121.605 401.281C120.483 402.635 119.36 403.537 117.789 404.214C119.136 401.733 120.483 399.477 122.054 396.996C124.299 398.124 126.319 399.477 128.563 401.056C130.584 399.026 132.828 396.996 134.848 394.966C131.93 393.387 129.012 391.809 126.094 390.455C127.441 388.425 128.563 386.17 129.91 384.14C131.93 380.757 133.951 377.374 135.971 374.216C139.787 376.021 143.603 378.276 147.419 381.208C147.868 381.434 148.092 381.659 148.541 382.11C148.765 381.885 149.214 381.434 149.439 381.208C148.316 385.944 144.725 390.004 142.031 394.064C141.582 394.966 141.134 395.868 140.685 396.771C137.767 399.252 135.073 401.733 132.155 404.214C132.379 404.439 132.604 404.439 132.828 404.665C130.135 408.048 127.666 413.461 124.074 417.295ZM187.823 360.684C186.7 360.909 185.578 361.36 184.456 361.811C183.333 361.586 182.435 361.135 181.313 360.684C179.068 362.488 176.599 364.292 174.355 366.097C174.804 366.322 175.477 366.548 175.926 366.773C171.661 369.705 167.172 372.637 162.907 375.57C160.887 377.148 159.091 378.953 157.071 380.757C153.255 384.366 149.214 388.2 145.398 391.809C148.316 387.749 151.459 383.915 151.908 378.727C151.908 378.502 151.908 378.502 151.908 378.276C152.806 377.374 153.928 376.472 154.826 375.57C149.888 373.089 145.174 370.382 140.236 367.901C141.807 365.646 143.378 363.616 145.174 361.36C146.072 360.233 144.501 358.879 143.827 360.007C142.031 362.262 140.236 364.743 138.44 366.999C136.42 366.097 134.4 365.194 132.379 364.518C131.033 364.067 129.91 363.616 128.563 363.165C132.379 357.977 136.195 353.015 140.011 348.053C141.134 348.504 142.256 349.181 143.378 349.406C150.786 352.113 156.622 354.819 163.131 359.33C164.927 360.684 166.723 361.811 168.518 362.714C170.539 360.909 172.559 359.33 174.579 357.752C166.274 354.143 158.417 348.73 149.888 345.572C147.643 344.896 145.623 343.993 143.378 343.317C144.052 342.415 144.725 341.512 145.398 340.61C146.072 339.483 144.501 338.58 143.827 339.708C143.154 340.61 142.48 341.512 141.807 342.64C141.134 342.415 140.46 341.964 139.787 341.738C137.991 340.61 136.42 339.257 135.073 337.904C137.093 335.197 138.889 332.265 140.909 329.559C141.582 328.656 140.011 327.754 139.338 328.656C137.318 331.363 135.522 333.844 133.726 336.55C133.277 336.099 132.828 335.648 132.379 335.423C129.91 333.393 126.992 330.912 124.074 328.656C125.645 327.078 126.992 325.273 128.114 323.469C129.461 321.213 130.584 319.184 131.93 317.154C135.073 321.439 136.195 322.116 141.582 323.92C150.786 327.078 159.315 332.265 168.743 335.197C170.539 335.648 172.334 335.874 173.906 336.099C180.64 337.227 179.293 338.129 183.782 339.483C190.965 341.512 199.046 341.512 206.004 344.444C211.616 346.925 216.105 351.211 220.595 355.271C220.37 355.271 220.146 355.722 220.146 355.947C220.146 359.556 220.146 363.39 220.146 366.999C219.472 366.773 218.799 366.773 218.126 366.773C213.412 366.097 208.474 365.646 203.76 365.194C203.76 362.488 203.76 359.781 204.433 357.075C205.107 353.466 206.229 350.534 206.229 346.925C206.229 346.023 204.882 346.023 204.882 346.925C205.107 351.662 203.086 355.947 202.637 360.684C202.637 362.037 202.413 363.39 202.413 364.969C202.189 364.969 201.74 364.969 201.515 364.969C201.291 364.969 200.842 364.969 200.617 364.969C200.842 364.743 201.291 364.518 201.74 364.067C204.433 361.811 201.066 358.428 198.373 359.556C195.23 360.909 190.741 359.781 187.823 360.684ZM192.536 437.82C193.21 434.662 194.108 431.504 194.557 428.572C195.006 426.542 195.23 424.512 195.679 422.483C197.026 422.483 198.373 422.708 199.719 422.708C199.719 427.219 199.719 431.73 199.495 436.241C199.495 436.917 199.495 437.82 199.27 438.496C198.597 438.496 197.924 438.271 197.25 438.271C195.679 438.271 194.108 438.045 192.536 437.82ZM221.268 442.556C220.595 442.556 219.697 442.33 219.024 442.105C219.024 437.368 219.248 432.632 219.248 428.121C222.391 429.7 225.533 431.73 228.676 433.309C228.676 436.466 228.676 439.624 228.676 443.007C226.206 443.007 223.737 443.007 221.268 442.556ZM230.471 442.781C230.471 439.849 230.471 436.917 230.471 433.985C237.205 436.917 242.144 436.917 248.653 435.79C248.653 438.271 248.653 440.526 248.653 443.007C245.96 442.556 243.041 442.33 239.899 442.33C236.756 442.556 233.614 442.781 230.471 442.781ZM250.898 443.458C250.898 440.752 250.898 438.271 250.898 435.564C252.245 435.339 253.591 435.113 255.163 434.887C255.836 434.662 256.285 434.436 256.734 433.985C262.121 434.211 270.202 434.211 271.549 434.211C271.773 439.849 272.222 445.488 272.447 450.901C271.998 450.676 271.324 450.45 270.875 450.224C264.141 447.292 257.632 444.811 250.898 443.458ZM274.242 451.803C273.793 448.195 273.344 444.36 273.12 440.752C273.12 438.722 272.896 436.692 272.896 434.662C279.181 435.564 285.017 438.722 291.526 439.173C291.526 444.135 291.526 448.871 291.975 453.833C286.139 454.059 280.078 453.608 274.242 451.803ZM292.873 453.382C293.322 448.646 293.546 443.684 293.546 438.947C293.771 438.947 293.771 438.947 293.995 438.947C299.158 438.722 304.321 437.143 309.484 435.339C309.484 436.241 309.708 437.143 309.708 438.045C310.157 441.879 309.933 445.714 309.933 449.548C304.096 451.352 298.485 452.705 292.873 453.382ZM342.256 440.075C338.889 440.526 335.297 441.428 331.93 442.33C331.93 440.301 331.706 438.045 331.481 436.015C331.257 433.534 331.032 431.053 330.808 428.572C335.073 426.768 339.338 424.738 343.154 422.483C344.5 421.58 345.847 420.678 346.97 419.776C347.194 420.453 347.194 421.129 347.419 422.031C348.541 427.67 349.663 433.534 350.786 439.173C348.092 439.173 345.174 439.624 342.256 440.075ZM352.806 438.947C351.683 433.083 350.561 427.219 349.214 421.355C348.99 420.453 348.765 419.551 348.541 418.423C350.337 417.295 352.132 415.942 354.153 415.265C359.989 413.01 364.703 414.363 370.763 414.589C373.008 414.814 375.028 414.589 376.824 414.137C377.722 417.972 378.619 421.806 379.742 425.64C380.64 429.249 381.537 433.309 382.66 436.917C381.986 436.917 381.313 437.143 380.864 437.143C371.661 438.271 362.233 438.271 352.806 438.947ZM385.353 436.917C383.333 429.249 381.313 421.58 379.293 413.912C383.558 412.784 387.149 410.529 391.414 408.048C392.312 407.371 393.434 406.92 394.332 406.243C396.577 415.04 398.373 425.189 404.433 432.181C398.821 435.564 392.087 436.241 385.353 436.917ZM407.351 429.925C407.127 430.151 406.678 430.377 406.453 430.828C400.842 423.159 398.597 414.363 396.128 405.116C402.637 401.281 409.596 396.319 414.759 390.455C416.779 398.575 417.901 407.146 422.166 414.363C417.452 420.002 412.514 425.415 407.351 429.925ZM479.63 284.675C471.1 311.064 461.897 337.904 451.122 363.616C444.164 380.08 434.961 397.673 423.288 412.784C423.288 412.784 423.288 412.784 423.288 412.559C423.288 412.333 423.064 412.333 422.839 412.108C419.697 404.439 418.126 396.545 416.105 388.426C418.126 385.719 419.697 382.787 420.595 379.629C421.044 379.178 421.268 378.727 421.717 378.276C423.737 384.14 425.982 390.004 426.431 396.32C426.431 397.447 428.002 396.771 428.002 396.771C428.002 390.004 425.982 385.493 423.962 380.306C423.513 379.178 423.288 378.05 422.839 376.697C425.533 372.637 427.553 366.773 428.9 363.165C430.471 359.33 431.145 355.271 431.818 351.211C433.165 354.143 434.736 356.849 437.654 358.428C438.103 358.654 439.001 358.428 439.001 357.752C439.674 353.692 439.225 349.858 436.532 346.7C436.307 346.474 435.858 346.7 436.083 347.151C438.103 349.858 438.777 352.79 437.879 355.947C435.185 353.466 433.838 350.309 432.716 346.925C433.389 343.542 434.063 340.159 435.634 337.002C436.083 335.874 436.532 334.746 437.205 333.844C437.654 336.776 438.103 339.708 438.552 342.64C438.552 343.091 439.225 343.091 439.225 342.64C439.45 338.806 439.001 334.972 438.552 331.137C441.47 325.048 444.388 319.184 447.306 313.319C448.653 310.613 450.224 307.681 451.571 304.749C451.571 306.553 451.796 308.358 452.02 310.387C452.469 314.898 453.367 319.635 453.367 324.371C453.367 329.784 451.796 334.972 452.02 340.385C452.02 340.836 452.693 340.836 452.693 340.385C453.367 334.972 454.938 329.784 455.163 324.371C455.387 319.184 454.265 313.771 453.816 308.583C453.591 306.102 453.367 303.621 453.367 301.14C454.265 298.434 454.938 295.727 454.938 293.246C454.938 291.893 454.04 291.216 452.918 290.991C452.918 290.54 452.918 289.863 452.693 289.412C457.407 276.556 464.141 264.151 465.264 249.942C466.161 237.988 469.529 226.936 468.855 214.982C468.182 202.803 457.632 195.36 457.407 183.181C457.183 177.317 459.876 172.129 460.325 166.491C460.774 162.882 460.774 159.048 460.774 155.439C465.488 156.341 470.426 157.018 474.691 158.371C476.936 159.048 479.181 159.724 481.425 160.401C481.874 174.61 482.099 188.819 485.241 203.254C491.302 230.545 488.384 257.836 479.63 284.675Z" fill="#DCDAD1" fill-opacity="0.39"/>
</svg>
