<svg width="348" height="281" viewBox="0 0 348 281" fill="none" xmlns="http://www.w3.org/2000/svg">
<path d="M394.662 118.377C387.905 117.66 381.505 115.154 374.926 113.542C373.504 113.184 372.082 112.826 370.659 112.647C372.259 111.752 373.504 110.499 374.393 108.708C374.749 107.813 374.749 107.097 374.571 106.381C378.127 104.232 381.505 102.084 385.061 99.5774C388.617 97.0708 394.306 94.7433 396.262 90.4464C397.151 90.2673 397.862 89.9093 398.751 89.7302C397.684 82.5686 395.906 75.5861 393.061 68.9616C388.439 57.8611 385.416 47.1187 377.949 37.4506C371.37 28.6777 363.547 24.9178 353.591 20.7999C340.967 15.6077 327.099 16.3239 313.942 13.9964C301.852 11.8479 291.185 7.37192 278.739 7.37192C271.272 7.37192 263.804 8.26712 256.514 8.26712C250.469 8.26712 244.78 6.11865 238.913 6.29769C236.424 6.29769 234.29 6.83481 231.801 6.47673C228.245 5.93961 225.222 3.97017 221.844 2.71689C216.866 1.10553 212.066 1.28457 206.91 1.46361C195.175 1.82169 183.974 -1.22198 172.417 0.568414C166.55 1.46361 161.927 3.79113 156.238 5.22345C153.393 5.93961 150.904 7.19288 148.593 8.6252C147.881 8.6252 147.17 8.6252 146.459 8.6252C134.369 7.73 121.923 9.87848 110.367 12.206C91.3424 16.1449 72.6739 30.8261 62.3618 47.1187C56.6723 56.0707 54.8944 66.6341 50.0939 75.9442C44.76 86.8656 40.6707 96.8918 36.7592 108.529C33.2033 118.914 30.003 129.119 24.6691 138.787C19.6909 147.918 16.8461 158.661 15.0682 169.045C13.1124 179.608 11.6901 191.067 7.06737 201.093C5.28942 204.853 2.44469 208.075 1.20012 212.014C-0.577835 217.386 -0.0444489 223.115 0.666733 228.665C1.9113 238.154 4.22264 247.464 5.46721 257.132C6.88958 268.233 8.66753 280.408 12.579 290.792C15.9571 299.744 23.7801 307.084 30.003 314.067C36.5814 321.408 45.2934 325.705 54.7166 328.569C66.0955 331.792 77.2966 332.508 87.9643 338.237C89.2089 338.954 90.2757 339.491 91.5202 340.028C91.8758 340.207 92.2314 340.565 92.587 340.565C92.7648 340.565 92.7648 340.565 92.9426 340.565C94.0094 341.102 95.2539 341.639 96.3207 341.997C96.6763 341.46 97.0319 341.102 97.2097 340.565C100.766 339.849 103.966 337.521 106.633 334.836C112.5 328.927 116.945 321.587 122.812 315.678C129.035 309.412 137.391 306.547 143.97 300.818C144.326 300.46 144.681 300.281 144.859 299.923C145.57 299.565 146.281 299.028 146.992 298.491C148.059 297.595 148.77 295.984 150.015 295.089C150.193 295.089 150.371 295.089 150.371 295.268C150.371 296.7 150.371 298.312 150.193 299.744C149.482 306.905 146.103 313.172 145.392 320.333C144.681 327.674 143.614 334.478 142.37 341.639C141.481 347.01 141.125 351.486 142.37 356.858C142.725 358.29 144.148 360.08 145.748 360.259C146.103 360.259 146.459 360.438 146.815 360.438C148.415 360.617 149.659 360.259 150.726 359.543C160.86 361.513 170.639 364.914 180.596 367.421C180.774 372.076 182.018 376.194 185.574 376.373C185.93 376.373 185.93 375.836 185.574 375.836C182.907 374.941 182.196 371.36 182.196 367.958C187.708 369.211 192.864 370.285 197.842 373.508C202.287 376.373 205.487 379.775 210.465 381.744C221.489 386.041 233.223 385.683 244.602 382.997C254.203 380.849 263.448 376.91 272.872 374.403C284.073 371.36 295.985 371.36 307.364 369.211C315.898 367.6 324.966 365.093 331.722 359.185C339.189 352.561 343.101 342.892 347.724 334.299C359.28 313.351 368.17 290.434 375.815 267.875C383.46 245.495 393.061 223.652 396.973 200.019C400.884 177.102 392.706 154.722 397.151 132.163C397.329 131.267 397.506 130.193 397.684 129.298C401.596 126.612 400.529 119.093 394.662 118.377ZM65.3843 75.5861C69.118 64.6646 71.7849 54.4594 79.2524 45.3284C86.3642 36.7344 97.0319 28.1405 107.344 24.2017C113.034 22.0532 119.256 21.5161 125.124 20.0837C131.169 18.6514 137.036 16.861 143.259 16.503C153.749 15.9658 162.994 13.6383 173.306 11.8479C174.017 11.6689 174.195 11.1318 174.195 10.4156C180.774 10.0575 187.174 10.7737 194.464 11.8479C204.42 13.4593 213.31 11.8479 222.556 15.9658C230.734 19.5466 239.979 19.1885 248.691 20.4418C258.648 22.0532 268.96 20.4418 278.917 20.7999C290.296 21.158 299.363 25.4549 310.209 28.1405C320.521 30.6471 331.011 30.6471 340.967 34.586C345.59 36.3764 349.324 39.5991 353.413 42.4637C357.502 45.1493 358.569 48.193 361.236 52.3109C366.037 59.4725 367.459 67.8874 371.015 75.5861C372.971 79.704 375.282 83.6429 376.526 88.1189C377.238 90.8044 377.593 93.311 377.771 96.1756C375.282 97.966 372.971 99.5774 370.304 101.189C367.637 102.621 364.97 104.232 362.481 105.844C362.303 105.844 362.303 105.844 362.125 105.844C361.769 104.591 361.236 103.158 360.88 101.905C358.391 103.516 355.724 104.949 353.235 106.56C353.591 107.455 353.769 108.171 354.124 109.067C351.279 110.32 348.435 111.752 345.59 113.005C343.812 113.722 342.212 114.617 340.612 115.691C340.434 114.975 340.078 114.259 339.901 113.722C337.589 114.796 335.278 116.049 332.967 117.123C333.322 118.018 333.678 118.914 333.856 119.809C329.588 122.494 325.321 125.18 320.699 126.791C320.521 125.896 320.165 125.001 319.81 124.106C317.854 125.18 316.076 126.254 314.12 127.508C315.187 130.551 316.076 133.595 316.432 136.997C317.143 143.263 316.254 148.813 316.076 155.08C316.076 157.407 315.543 160.809 316.254 163.137C317.321 166.359 320.165 168.329 321.054 171.73C322.832 178.892 319.454 186.054 319.276 193.215C319.099 200.556 317.143 207.359 315.543 214.342C316.787 214.7 318.032 215.058 319.098 215.416C321.765 208.971 324.61 202.704 324.966 195.543C325.499 188.56 327.455 181.936 327.099 174.953C326.744 167.792 320.521 163.316 320.343 156.154C320.165 152.752 321.765 149.709 322.121 146.307C322.477 143.263 322.477 140.04 322.299 136.997C322.121 135.027 321.943 133.058 321.588 131.267C326.388 131.446 331.189 130.014 335.633 128.224C335.633 128.403 335.633 128.582 335.633 128.582C336.522 135.922 335.278 142.547 335.278 149.709C335.278 152.573 334.567 156.333 335.456 159.019C336.7 162.778 340.078 165.106 340.967 169.045C342.923 177.46 339.012 185.875 338.834 194.289C338.656 207.717 333.144 219.534 332.078 232.783C331.722 233.499 331.189 234.215 331.011 234.931C330.833 235.469 330.477 236.006 330.3 236.543C329.588 234.752 329.055 232.783 328.344 230.993C327.988 230.097 326.566 230.455 326.922 231.351C327.81 233.678 328.699 236.006 329.411 238.512C328.166 240.84 326.922 243.346 325.677 245.674C322.477 251.582 318.921 256.774 317.854 263.399C316.254 273.604 311.631 282.198 304.875 289.36C304.341 287.927 303.986 286.316 303.453 284.884C303.097 283.988 301.852 284.346 302.03 285.242C302.564 287.032 303.097 288.822 303.63 290.613C300.252 294.015 296.518 297.058 292.429 299.565C291.007 294.731 289.407 290.076 287.629 285.421C292.607 282.019 297.585 277.901 299.008 272.351C301.141 270.381 302.564 266.621 303.453 263.936C306.119 264.473 308.609 264.652 310.92 263.936C312.342 263.399 313.231 261.429 311.987 260.176C310.031 258.386 307.897 257.132 305.586 255.879C305.586 255.7 305.586 255.521 305.764 255.342C296.696 253.014 287.806 247.464 280.339 242.809C275.894 240.124 271.094 237.08 266.471 233.857C264.515 232.783 262.382 231.53 260.426 230.276C260.604 230.097 260.782 229.739 260.959 229.56C259.359 228.307 257.937 227.054 256.514 225.621C256.337 225.8 256.337 225.979 256.159 226.158C255.981 226.517 255.803 226.875 255.625 227.412C251.714 225.263 247.447 223.473 243.358 222.757C243.18 222.757 243.002 222.757 242.824 222.757C244.247 220.608 245.669 218.46 246.914 216.669C249.58 212.193 247.803 207.359 249.225 202.525C251.181 195.722 256.159 191.425 257.581 184.084C258.648 179.071 258.47 173.163 257.048 168.15C255.803 163.495 252.603 160.63 248.869 158.84C248.158 154.901 247.447 151.141 246.736 147.381C248.336 148.097 250.114 148.634 251.892 149.171C260.782 151.678 264.515 155.259 266.649 164.39C267.716 169.224 268.96 175.132 268.782 180.503C268.605 180.503 268.605 180.682 268.605 180.861C267.36 187.307 265.582 194.11 263.449 200.377C262.56 202.883 261.137 205.211 260.782 207.896C260.604 210.403 261.493 212.91 261.315 215.416C261.137 218.281 260.07 220.25 258.648 222.22C260.248 223.294 261.848 224.368 263.271 225.442C264.515 223.294 265.404 220.966 265.76 218.46C266.649 212.372 265.582 207.359 267.36 201.451C268.782 196.796 269.316 191.604 269.494 186.591C271.627 181.757 271.449 176.564 271.272 171.014C270.916 164.211 270.916 154.364 266.471 148.813C264.871 146.844 262.737 145.412 260.248 144.516C259.359 138.966 257.403 133.416 255.448 127.866C258.826 129.477 262.204 131.088 265.582 132.342C265.76 132.7 265.938 133.237 265.938 133.595C266.115 134.132 266.293 134.669 266.293 135.206C266.115 134.848 266.293 140.04 265.582 137.892C265.404 137.534 265.049 137.713 265.049 138.071C265.226 138.608 265.226 139.145 265.404 139.682C265.404 139.861 265.76 140.04 265.938 140.04C268.605 139.503 268.249 136.281 267.36 133.237C271.805 135.206 274.116 138.787 277.317 142.547C282.828 148.992 286.029 157.586 285.14 166.359C284.606 171.372 283.362 176.744 281.939 181.578C280.161 188.202 280.161 193.931 279.272 200.735C278.561 206.106 278.383 211.477 277.672 216.848C276.961 221.862 277.85 227.412 276.961 232.067C276.783 232.783 276.605 233.499 276.25 234.394C277.494 235.29 278.739 236.006 280.161 236.901C282.65 233.141 282.473 229.739 283.184 225.084C284.606 214.521 286.384 204.137 286.384 193.573C286.384 183.189 292.074 172.626 291.185 162.062C290.118 150.246 286.206 142.905 279.272 133.953C278.917 133.416 278.561 133.058 278.206 132.7C278.383 132.7 278.561 132.521 278.561 132.342C279.095 124.822 276.961 117.481 275.716 110.141C275.716 109.604 275.539 109.067 275.539 108.529C277.139 108.887 278.917 109.604 280.339 110.678C281.761 111.752 283.006 113.005 284.251 114.438C284.428 117.66 284.606 120.883 284.962 124.106C284.962 124.464 285.495 124.464 285.495 124.106C285.851 121.599 285.851 119.093 285.851 116.407C287.095 117.839 288.34 119.272 289.584 120.525C295.452 126.075 297.585 132.342 297.941 140.398C298.119 143.979 297.407 147.56 297.941 151.141C298.296 154.364 299.897 157.049 300.786 160.272C302.386 166.359 300.963 171.73 300.43 177.818C299.719 185.337 300.252 193.215 299.541 200.735C299.185 204.674 297.407 208.434 296.163 212.014C297.763 212.193 299.185 212.551 300.786 212.731C302.03 210.94 303.63 209.329 304.697 207.359C307.542 202.346 307.364 195.901 307.72 190.172C308.253 182.473 310.209 173.7 309.142 166.001C307.897 157.586 304.875 150.604 304.697 142.01C304.519 136.102 303.986 128.94 301.141 123.569C299.541 120.525 297.052 118.018 294.563 115.691C291.896 113.184 289.94 110.141 287.273 107.455C286.562 106.739 285.851 106.202 285.14 105.665C284.962 102.979 284.606 100.115 284.428 97.4289C284.251 95.8176 284.073 94.2062 284.073 92.7739C286.562 93.49 289.407 93.6691 292.251 93.8481C293.496 93.8481 294.385 94.0272 295.452 94.2062C294.918 97.608 294.385 101.189 293.496 104.591C293.318 105.307 294.385 105.486 294.563 104.949C295.452 101.547 296.163 98.1451 296.696 94.5643C307.008 97.787 307.72 110.678 311.275 120.346C311.809 121.957 312.52 123.569 313.053 125.18C314.831 123.748 316.609 122.315 318.387 121.062V120.883C313.765 110.499 313.587 98.5032 303.808 90.9835C301.852 89.5512 299.719 88.835 297.585 88.4769C297.941 84.7171 298.296 80.7782 298.474 77.0184C301.497 77.7345 304.519 78.0926 307.72 78.0926C324.788 78.8088 325.144 96.3547 329.766 109.067C330.3 110.32 330.655 111.573 331.189 112.826C333.322 111.573 335.633 110.32 337.945 109.246C332.611 97.2499 332.433 83.2848 321.232 74.6909C316.076 70.752 309.675 71.8262 303.63 71.1101C295.985 70.2149 291.007 63.4114 283.895 60.9048C269.849 56.0707 254.737 58.2192 240.335 59.1144C233.401 59.4725 229.312 58.9354 223.089 56.2498C217.044 53.7432 211.532 50.8786 205.132 49.4463C200.687 48.372 196.064 48.0139 191.619 47.6559C194.642 44.7912 197.842 41.9266 200.687 39.062C201.22 38.5248 200.331 37.4506 199.798 38.1668C196.597 41.5685 193.041 44.6122 189.486 47.6559C180.24 47.4768 170.995 48.5511 161.749 49.4463C156.06 49.9834 150.193 49.2672 144.503 49.8043C140.77 50.1624 137.036 51.2367 133.302 51.9528C126.013 53.5642 119.612 56.9659 112.678 59.6515C107.166 61.621 102.544 67.3502 100.232 72.5424C99.1655 74.8699 98.6321 77.3765 98.0987 79.704C97.0319 81.6734 96.3207 83.6429 95.6095 85.6123C90.6313 87.7608 86.1864 90.6254 81.7415 93.6691C81.2081 90.2673 80.6747 86.8656 80.6747 83.4638C80.6747 82.9267 80.6747 82.3896 80.6747 81.8525C84.764 79.1669 88.6755 76.3022 92.4092 73.0795C93.1204 72.5424 92.0536 71.6472 91.5202 72.1843C88.3199 75.049 84.9418 77.5555 81.3859 79.883C86.0086 70.752 88.4977 58.7563 95.4317 51.5947C95.6095 51.4157 95.6095 51.4157 95.7873 51.2367C98.2765 48.7301 101.477 46.7607 105.566 46.0445C107.522 45.6864 109.3 44.9703 110.9 44.0751C111.611 44.6122 112.678 43.896 112.678 43.0008C115.7 41.3895 118.723 39.42 122.279 38.7039C132.413 36.5554 142.192 36.5554 152.504 35.6602C156.06 35.3021 159.616 34.4069 163.172 33.8698C167.261 33.1536 170.817 33.6908 174.906 33.6908C185.218 33.6908 193.575 32.4375 203.887 35.1231C215.444 38.3458 226.111 47.8349 238.379 48.0139C245.847 48.0139 253.67 47.2978 260.959 46.5816C269.849 45.5074 277.139 46.2235 285.851 47.2978C294.563 48.372 299.185 51.5947 306.297 56.6079C311.809 60.3677 317.676 60.9048 324.255 61.0839C343.99 61.8 344.345 82.0315 349.679 96.7128C350.391 98.6822 351.279 100.652 351.991 102.621C354.658 101.547 357.502 100.473 360.169 99.3984C359.814 98.6822 359.636 97.966 359.28 97.2499C353.057 83.2848 352.88 67.1712 339.723 56.9659C333.678 52.3109 326.566 53.7432 319.454 52.848C310.564 51.7738 304.875 43.896 296.696 41.0314C280.517 35.4812 263.093 37.9877 246.558 39.062C238.557 39.5991 233.757 38.7039 226.645 35.8392C219.711 32.7956 213.31 29.7519 205.843 27.9615C189.13 24.2017 172.595 26.1711 155.882 28.1405C149.304 28.8567 142.548 27.9615 135.969 28.4986C131.524 28.8567 127.257 30.11 122.99 31.0052C114.456 32.7956 107.166 36.9135 99.1655 39.7781C92.9426 42.1056 87.4309 48.5511 84.764 54.4594C83.5194 57.145 82.9861 60.0096 82.2749 62.8742C79.2524 68.9616 77.1188 75.5861 76.4076 82.2105C76.4076 82.2105 76.2298 82.2105 76.2298 82.3896C71.7849 84.8961 68.0512 88.4769 63.6063 90.9835C62.184 91.8787 60.406 92.5948 58.8059 93.49C60.7616 87.2237 63.4286 81.6734 65.3843 75.5861ZM355.547 221.503C355.369 221.683 355.369 221.862 355.369 222.22C353.946 227.949 352.702 233.678 352.346 239.586C351.813 240.482 351.457 241.198 351.102 241.914C349.324 245.674 347.368 249.434 345.412 253.014C344.879 249.792 344.345 246.39 344.168 243.167C343.99 238.512 343.99 234.036 343.279 229.381C342.745 225.084 341.501 220.966 340.256 216.848C342.923 210.403 345.59 203.958 345.946 196.617C346.479 188.381 348.79 180.861 348.435 172.626C348.079 164.211 340.79 159.198 340.434 150.604C340.256 146.486 342.034 142.905 342.568 138.966C342.923 135.564 342.923 131.626 342.745 128.045C342.745 126.97 342.568 125.717 342.39 124.643C344.701 123.569 346.835 122.494 349.146 121.778C350.746 121.241 352.346 120.525 353.946 119.809C354.124 119.988 354.302 119.988 354.658 120.167C355.191 120.346 355.902 120.704 356.436 120.883C357.147 128.582 355.902 135.743 355.724 143.442C355.724 146.665 355.013 151.141 355.902 154.185C357.325 158.481 361.236 161.167 362.303 165.822C364.614 175.669 359.991 185.158 359.991 194.827C359.991 204.316 357.68 212.91 355.547 221.503ZM326.388 297.416C324.61 291.866 322.832 286.316 321.232 280.766C321.054 279.87 319.454 280.229 319.81 281.124C321.41 287.032 323.366 292.94 325.321 298.849C321.41 304.041 316.787 308.696 311.453 312.635C310.209 307.622 308.786 302.608 307.364 297.416C311.098 294.194 314.298 290.434 315.543 286.137C318.387 283.63 320.165 278.08 321.232 274.857C323.188 269.665 323.188 264.115 324.788 258.923C325.499 261.787 326.21 264.473 326.922 267.338C328.166 272.709 329.055 278.08 330.122 283.63C330.477 285.421 330.833 287.211 331.189 288.822C329.766 292.045 328.166 294.91 326.388 297.416ZM274.472 323.377C273.583 319.08 272.694 314.604 271.805 310.307C275.183 309.412 278.028 310.128 281.584 310.486C286.206 310.844 289.584 309.233 293.14 307.263C294.385 311.56 295.452 315.857 296.518 320.333C289.584 321.229 282.295 319.617 275.361 323.019C275.005 323.019 274.827 323.198 274.472 323.377ZM261.315 349.159C261.315 349.875 261.315 350.77 261.315 351.486C256.514 352.919 251.714 354.709 246.914 356.32C246.914 352.561 246.736 348.801 246.38 345.22C248.869 344.325 251.358 343.609 253.67 342.892C255.981 342.355 258.292 341.639 260.604 340.744C260.959 343.609 261.315 346.294 261.315 349.159ZM250.114 335.015C248.514 335.373 247.091 335.91 245.669 336.447C245.136 331.971 244.78 327.674 244.424 323.198C244.424 323.019 244.424 323.019 244.424 322.84C245.136 322.661 246.025 322.303 246.736 322.124C250.469 321.229 254.203 319.796 257.581 318.185C258.292 322.482 258.826 326.779 259.359 331.076C259.359 331.255 259.359 331.434 259.359 331.434C256.692 333.045 253.67 334.298 250.114 335.015ZM232.334 340.565C232.156 335.91 231.801 331.255 231.445 326.779C235.357 326.063 239.268 324.63 243.18 323.377C243.18 324.272 243.18 324.988 243.358 325.884C243.535 329.643 243.891 333.224 244.247 336.984C241.402 338.058 238.735 339.133 235.89 340.028C234.646 340.386 233.401 340.565 232.334 340.565ZM172.239 348.98C172.239 349.696 172.239 350.233 172.239 350.949C167.795 350.233 163.527 349.338 159.083 348.622C159.083 346.115 159.438 343.609 159.438 342.176C159.438 340.028 159.438 338.058 159.438 335.91C161.749 336.089 164.239 336.447 166.55 336.984C168.506 337.521 170.461 338.237 172.239 339.133C172.239 342.355 172.239 345.757 172.239 348.98ZM163.883 297.058C167.261 297.416 170.639 297.416 174.017 298.132C174.017 302.25 173.84 306.368 173.662 310.307C171.884 309.77 169.928 309.412 167.795 309.054C165.305 308.696 162.816 308.517 160.505 308.159C160.86 304.399 161.216 300.46 161.394 296.7C161.927 296.879 162.816 296.879 163.883 297.058ZM106.633 246.569C102.721 241.556 96.4985 232.783 96.1429 227.591C95.9651 224.189 97.9209 222.399 99.1655 219.534C100.943 215.953 101.655 212.193 103.61 208.792C105.744 204.853 109.833 201.988 111.433 197.87C112.856 194.468 113.567 190.53 114.634 186.77C116.234 186.949 117.834 187.128 119.612 187.307C122.457 187.486 125.835 187.665 128.857 187.128C126.546 190.53 126.19 194.289 123.701 197.691C120.145 202.167 116.234 206.106 113.389 211.298C110.189 217.565 105.033 227.054 110.9 232.783C114.634 236.364 120.145 238.512 124.412 241.198C129.568 244.421 132.947 248.001 138.814 249.792C143.437 251.045 147.881 250.687 152.326 251.761C156.593 252.835 159.26 254.805 164.061 254.626C170.284 254.268 172.239 253.91 177.04 259.46C178.284 260.892 178.996 262.504 180.24 263.936C183.974 267.875 187.352 267.696 192.508 268.949C199.264 270.56 206.198 271.456 213.132 272.709C219.177 273.783 226.289 275.573 232.334 273.783C237.135 272.351 242.291 269.486 246.736 266.98C250.647 264.831 254.203 262.146 257.226 258.744C262.56 257.311 265.938 252.119 269.671 248.001C270.383 247.106 271.094 246.39 271.983 245.674C274.294 247.106 276.428 248.359 278.561 249.792C279.628 250.508 280.695 251.224 281.939 251.94C281.05 253.373 279.983 254.984 279.272 256.416C275.894 262.504 270.916 265.01 264.693 267.696C259.004 270.023 252.603 269.307 247.447 272.888C243.535 275.573 239.446 280.229 235.535 281.84C232.69 282.914 226.823 283.988 223.445 284.167C220.066 284.346 217.222 284.167 214.021 285.242C212.955 285.6 212.243 285.779 211.532 286.137C211.354 285.6 211.354 285.242 211.177 284.704C210.999 283.988 210.11 284.167 209.932 284.704C209.576 283.988 208.687 283.451 207.799 283.272C201.753 283.093 195.708 282.556 189.663 282.019C182.907 281.303 181.84 278.08 176.684 274.141C167.795 267.517 160.149 265.905 149.304 265.189C146.103 265.01 143.437 263.757 140.058 263.041C134.369 261.787 125.835 259.281 120.679 256.237C115.878 253.552 111.611 253.193 108.233 248.538C108.055 248.359 107.877 248.18 107.7 248.001L107.877 247.822C108.411 246.927 107.344 245.853 106.633 246.569ZM98.8099 292.94C101.477 293.836 104.144 294.91 106.455 295.984C105.033 298.132 103.61 300.281 102.366 302.608C101.121 304.757 100.054 306.905 98.8099 309.054C96.1429 307.622 93.2982 306.368 90.4535 305.294C92.2314 302.608 94.0094 299.923 95.7873 297.237C96.6763 295.626 97.5653 294.194 98.8099 292.94C98.6321 292.761 98.6321 292.761 98.8099 292.94ZM76.5854 321.945C73.2073 321.229 70.007 320.512 66.8067 319.796C67.34 318.901 68.0512 318.006 68.7624 317.29C70.896 314.604 73.3851 312.277 75.6964 309.591C76.5854 308.696 77.2966 307.622 78.0078 306.726C79.6079 307.622 81.2081 308.338 83.1639 309.054C83.875 309.233 84.5862 309.591 85.2974 309.77C82.4527 313.888 79.7857 317.827 77.1188 321.945C76.941 322.124 76.7632 321.945 76.5854 321.945ZM87.0754 310.486C86.3642 313.172 83.875 315.857 82.2749 317.648C82.0971 317.827 82.0971 317.827 81.9193 318.006C83.5194 315.499 85.2974 312.993 87.0754 310.486ZM94.365 296.342C92.587 299.207 90.8091 301.892 88.8533 304.757C86.542 303.862 84.2306 303.146 81.9193 302.25C84.0528 299.744 86.0086 297.058 88.1421 294.552C89.3867 292.94 90.8091 291.329 92.0536 289.718C93.6538 290.792 95.254 291.687 97.2097 292.403C96.1429 293.656 95.254 294.91 94.365 296.342ZM79.0746 300.818C75.8742 299.028 73.9185 296.342 71.2516 294.015C69.8292 292.94 68.5846 291.687 66.9845 290.613C70.5404 287.211 74.2741 283.809 78.0078 280.408C78.1856 280.228 78.1856 280.228 78.3634 280.049C80.1413 281.303 82.0971 282.556 83.875 283.988C86.3642 285.779 88.4977 287.39 90.8091 288.822C89.3867 290.792 87.7865 292.761 86.1864 294.731C84.2306 297.058 82.4527 299.207 80.6747 301.534C79.9635 301.176 79.6079 300.997 79.0746 300.818ZM55.9611 282.556C52.7608 280.766 50.2717 280.766 47.427 278.259C47.2492 278.08 47.0714 277.901 46.8936 277.722C51.1607 274.32 55.25 270.381 58.9837 266.442C60.2282 269.486 62.0062 271.814 65.2065 273.246C66.0955 273.604 66.9845 273.962 67.8734 274.32C66.2733 276.111 64.6731 278.08 62.8952 279.87C61.4728 281.303 60.2282 282.735 58.8059 284.346C58.0947 283.809 57.0279 283.093 55.9611 282.556ZM20.2242 230.634C26.6249 226.158 33.0255 221.683 39.4262 217.207C38.715 220.966 38.0038 224.905 36.7592 228.486C31.2476 233.32 25.9137 238.333 20.7576 243.525C20.2242 239.407 19.8686 235.11 20.2242 230.634ZM75.1631 96.8918C74.4519 97.4289 73.5629 97.966 72.8517 98.6822C66.4511 103.337 59.5171 106.918 52.7608 110.857C52.9386 109.962 53.1164 109.246 53.2942 108.35C54.1832 103.695 55.7833 99.2193 57.5613 94.9224C60.7616 93.311 63.9619 91.5206 66.9845 89.5512C69.8292 87.4027 72.8517 85.6123 75.8742 83.6429C75.8742 84.18 75.6964 84.7171 75.6964 85.4333C75.5186 89.1931 75.3409 93.132 75.1631 96.8918ZM52.2274 112.826C58.9837 108.887 65.9177 105.307 72.3183 100.652C73.2073 99.9355 74.0963 99.3984 75.1631 98.6822C74.9853 102.979 74.6297 107.097 73.9185 111.394C70.5404 113.542 67.1623 115.512 63.7841 117.481C59.1615 120.167 54.7166 123.032 50.2717 126.075C50.8051 121.599 51.5163 117.123 52.2274 112.826ZM165.839 66.6341C168.15 66.8131 169.039 65.5598 170.639 63.9485C173.484 61.2629 176.862 59.1144 179.885 56.6079C181.129 55.5336 182.552 54.2803 183.796 53.2061C188.774 53.0271 193.397 52.848 198.553 53.7432C193.575 58.2192 188.419 62.8742 183.085 67.1712C177.751 67.5293 172.239 68.0664 166.906 68.6035C161.927 69.1406 157.127 68.4245 152.148 68.7826C148.948 69.1406 145.748 70.0358 142.548 70.752C136.325 72.1843 130.813 75.049 124.946 77.3765C120.323 79.1669 116.234 83.8219 114.278 88.2979C113.389 90.2673 112.856 92.4158 112.322 94.5643C109.655 99.9355 108.055 105.665 107.877 111.752C107.7 115.691 107.7 119.272 107.344 123.032C107.166 123.032 106.988 123.032 106.633 123.032C102.899 125.001 99.1654 126.97 95.4317 129.119C96.1429 125.001 97.0319 120.883 97.5653 116.765C98.4543 109.783 95.9651 103.337 95.9651 96.5337C95.9651 95.8176 95.9651 95.1014 96.1429 94.3852C100.41 86.5075 102.544 75.407 108.766 68.9616L108.944 68.7826C111.256 66.6341 113.922 65.0227 117.478 64.3066C119.079 63.9485 120.679 63.4114 122.101 62.6952C122.812 63.2323 123.523 62.5162 123.701 61.8C126.368 60.3677 128.857 58.7563 132.058 58.0402C140.947 56.0707 149.304 56.2498 158.371 55.5336C161.572 55.3546 164.416 54.4594 167.617 53.9223C171.173 53.3851 174.195 53.7432 177.751 53.7432C178.996 53.7432 180.24 53.7432 181.485 53.7432C178.64 56.2498 175.795 58.5773 172.951 60.9048C170.639 62.6952 168.683 65.5598 165.661 66.455C165.305 65.9179 165.483 66.455 165.839 66.6341ZM282.117 69.8568C282.117 68.9616 280.695 68.9616 280.695 69.8568C281.05 74.6909 281.406 79.5249 281.939 84.359C278.561 82.2105 275.361 79.5249 271.627 78.0926C259.537 73.9747 246.736 75.7651 234.468 76.6603C228.601 77.0184 225.045 76.4813 219.711 74.1538C214.555 72.0053 209.932 69.4987 204.243 68.4245C197.842 66.9922 191.441 66.8131 185.218 66.9922C185.574 66.6341 185.93 66.455 186.285 66.097C191.086 62.3371 195.708 58.0402 200.331 53.9223C201.22 54.1013 202.109 54.2803 203.176 54.6384C213.132 57.324 222.378 65.7389 233.045 65.9179C239.446 65.9179 246.38 65.3808 252.781 64.6646C260.604 63.7694 266.827 64.3066 274.472 65.3808C282.117 66.276 286.029 69.1406 292.251 73.4376C293.852 74.5118 295.452 75.228 297.052 75.7651C297.052 79.704 296.696 83.6429 296.341 87.5817C293.852 87.4027 291.362 87.4027 288.873 87.2236C287.095 87.0446 285.317 86.3285 283.717 85.6123C283.006 80.0621 282.473 74.8699 282.117 69.8568ZM283.006 96.5337C283.184 98.8612 283.362 101.189 283.539 103.695C280.517 101.905 277.672 101.368 274.294 101.01C273.583 95.6385 272.694 90.2673 271.627 84.8961C273.938 85.9704 276.072 87.5817 278.739 89.3721C279.983 90.2673 281.228 90.8044 282.473 91.3416C282.65 93.132 282.828 94.9224 283.006 96.5337ZM273.938 108.171C275.005 116.049 276.428 123.569 277.317 131.446C273.583 127.687 269.671 126.97 264.693 125.359C262.915 118.198 261.848 111.036 260.604 103.874C263.271 104.411 265.938 105.128 268.782 106.202C270.383 106.739 271.983 107.097 273.761 107.455C273.938 107.813 273.938 107.992 273.938 108.171ZM249.047 173.7C249.047 174.058 249.58 174.058 249.58 173.7C249.758 171.551 249.758 169.224 249.58 166.896C251.003 168.15 252.07 169.761 252.603 171.551C254.381 179.429 252.425 186.77 247.803 193.036C245.136 196.617 244.602 199.303 243.891 203.779C243.358 207.18 243.535 210.582 242.113 213.626C240.157 217.923 235.535 223.115 231.623 225.8C226.467 229.202 221.667 234.036 215.088 234.215C206.91 234.394 199.798 229.918 194.108 224.368C187.885 218.281 187.352 210.582 177.395 209.508C171.706 208.792 165.839 211.298 160.149 212.014C157.482 212.372 152.326 213.984 152.326 211.119C152.326 208.434 156.238 206.822 158.016 204.853C161.394 201.272 162.816 197.154 164.594 192.857C167.083 186.591 171.173 183.189 174.729 177.997C178.64 172.268 176.862 165.464 176.151 158.84C176.329 158.84 176.329 158.661 176.329 158.481C177.04 156.87 176.862 156.691 178.818 156.333C182.018 155.438 180.062 156.691 181.84 158.661C182.729 159.735 183.085 161.346 183.974 162.599C185.752 164.927 188.597 167.433 191.797 167.075C194.819 166.717 196.597 164.211 198.553 162.241C205.843 155.438 212.777 157.944 221.311 159.556C224.333 160.093 228.778 160.63 233.401 161.525C234.112 166.001 235.179 170.477 235.89 174.953C234.823 174.058 233.757 173.342 232.512 172.805C228.956 171.014 222.733 171.73 219 172.268C213.666 173.163 210.999 175.49 205.665 173.521C197.842 170.835 189.663 173.163 184.152 179.071C182.018 180.861 180.24 183.547 178.462 185.516C176.151 188.023 174.017 189.992 173.484 193.394C173.128 196.08 173.484 198.228 175.973 199.661C177.929 200.914 182.552 199.482 184.685 199.84C190.908 200.735 191.975 201.809 194.286 206.285C197.131 211.835 200.153 224.547 206.91 226.338C212.066 227.77 216.688 223.294 220.778 221.145C224.867 218.997 229.134 217.923 231.801 213.984C234.823 209.508 234.468 203.42 236.779 198.586C238.557 195.006 240.513 192.32 241.58 188.381C242.646 184.263 240.691 179.787 237.49 176.385C236.957 173.879 236.424 171.551 235.89 169.224C235.357 166.717 234.823 164.211 234.29 161.704C238.913 162.599 243.713 163.853 247.091 166.001C248.336 168.329 248.691 171.014 249.047 173.7ZM229.667 123.39C233.401 122.494 237.135 121.778 241.224 122.136C242.646 127.687 243.535 133.237 244.247 138.787C242.824 138.25 241.224 137.713 239.624 137.713C237.135 137.534 235.001 138.25 232.512 138.25C232.334 133.058 231.623 127.687 229.667 123.39ZM232.69 152.394C232.868 153.289 232.868 154.185 233.045 155.08C231.268 154.901 229.49 154.722 227.712 154.543C221.667 153.826 214.377 150.604 208.332 152.036C205.487 152.752 202.109 154.185 199.62 155.796C198.553 156.512 197.842 157.407 196.953 158.123C196.064 159.019 195.353 159.735 194.642 160.63C191.975 159.914 189.13 159.019 186.463 158.302C183.796 156.154 184.685 150.962 180.062 150.425C178.107 150.246 176.684 151.141 175.795 152.394C175.44 152.215 175.084 152.394 174.906 152.752C174.729 153.647 174.729 154.543 174.551 155.438C174.373 156.154 174.373 156.691 174.373 157.407C174.373 157.586 174.373 157.765 174.551 157.944C174.373 160.63 174.551 163.316 174.195 166.359C173.662 171.73 172.773 174.416 168.861 178.355C166.55 180.682 164.594 182.294 162.816 185.158C158.727 191.604 156.06 197.87 150.193 202.883C146.992 205.569 143.259 207.717 144.681 212.372C148.059 223.831 168.861 213.089 175.973 213.626C184.507 214.163 188.063 223.652 193.219 229.739C197.842 235.29 202.109 238.333 209.221 239.766C214.377 240.84 219.355 241.019 224.156 238.333C228.956 235.648 235.001 231.172 238.913 227.233C239.624 226.338 240.513 225.442 241.224 224.547C241.402 225.084 241.757 225.621 242.469 225.979C246.38 227.233 249.936 229.918 253.314 232.604C250.469 237.259 248.691 236.006 245.313 237.975C242.291 239.945 239.091 242.63 235.89 244.242C232.69 245.853 229.134 246.211 225.934 247.464C222.733 248.718 220.066 250.508 216.51 251.224C210.821 252.477 207.087 251.403 202.465 248.718C200.864 247.822 199.62 247.106 197.842 246.39C194.464 245.316 190.73 245.853 187.708 243.704C184.507 241.377 184.329 239.049 182.196 235.827C179.529 231.888 176.151 229.202 171.884 227.233C161.216 222.22 153.749 220.429 141.836 221.862C137.747 222.399 130.813 225.442 131.346 217.207C131.524 213.626 137.747 208.971 139.881 206.285C142.903 202.346 147.17 198.407 149.837 194.289C152.149 190.888 153.215 185.875 154.46 181.936C156.06 176.923 158.549 172.447 160.149 167.613C163.883 156.691 158.371 142.726 161.394 131.088C161.572 131.088 161.572 130.909 161.749 130.909C164.239 127.508 165.305 123.748 171.528 127.687C173.128 128.761 174.373 131.446 175.795 132.7C177.395 133.953 179.351 134.49 181.129 135.564C183.974 137.176 186.463 139.503 189.308 140.936C192.686 142.905 196.775 144.158 200.864 143.8C207.621 143.084 211.71 138.071 219 138.966C223.267 139.503 227.178 141.473 231.268 142.726C231.979 146.128 232.156 149.171 232.69 152.394ZM238.557 186.233C238.557 186.591 239.091 186.412 239.091 186.233C239.091 185.696 239.091 185.158 239.091 184.621C239.268 185.158 239.446 185.696 239.446 186.233C239.624 187.844 238.024 190.888 237.313 192.141C235.89 194.827 234.112 197.154 232.868 199.84C231.09 203.599 230.201 209.866 226.823 212.193C224.511 213.805 220.955 214.163 218.288 215.416C215.977 216.49 213.666 218.281 211.177 218.46C206.732 218.818 209.754 219.176 207.443 216.848C203.176 212.91 199.62 206.464 196.242 201.63C193.041 197.154 190.552 196.259 185.218 196.259C180.774 196.259 178.64 198.407 178.996 192.499C179.351 187.844 179.885 188.381 182.552 185.158C183.618 183.905 184.685 182.652 185.93 181.22C189.308 178.892 192.152 176.744 196.42 176.206C201.398 175.49 204.776 178.355 209.399 178.892C215.799 179.429 221.489 174.058 228.423 175.311C231.09 175.848 235.535 179.071 238.024 182.473C238.202 183.726 238.379 184.979 238.557 186.233ZM234.112 155.259C233.757 152.931 233.401 150.604 233.223 148.097C233.045 146.665 232.868 145.053 232.868 143.263C233.934 143.442 234.823 143.621 235.89 143.8C240.157 144.158 241.757 145.053 245.313 146.486C245.847 150.246 246.38 154.005 246.914 157.765C242.824 156.333 238.379 155.617 234.112 155.259ZM245.491 139.503C244.78 133.774 243.891 128.045 242.469 122.494C243.891 122.674 245.313 123.211 246.736 123.748C249.047 124.822 251.536 125.896 253.848 126.97C255.626 132.521 257.581 138.071 258.648 143.8C255.448 142.726 252.07 142.01 249.047 140.936C247.98 140.577 246.736 140.04 245.491 139.503ZM241.224 118.018C240.691 116.228 239.979 114.438 239.268 112.647C238.913 111.931 237.846 112.289 238.202 113.005C238.913 114.617 239.446 116.407 239.979 118.018C239.268 118.018 238.557 117.839 238.024 117.839C232.868 117.839 229.312 118.377 224.511 119.988C217.399 122.315 211.177 122.494 203.887 120.346C198.02 118.556 192.864 116.228 187.53 113.184C191.441 111.394 195.353 108.35 198.909 106.202C200.509 105.128 202.109 104.053 203.531 102.621C204.42 103.158 205.309 103.516 206.376 103.874C212.777 106.023 217.399 104.232 223.445 102.979C228.423 101.905 233.045 102.979 238.024 102.621C241.046 102.442 243.713 102.263 246.38 102.263C248.336 108.35 250.114 114.617 251.892 120.883C248.514 119.451 244.958 118.377 241.224 118.018ZM253.314 121.062C251.536 114.796 249.758 108.529 247.803 102.263C249.758 102.263 251.892 102.442 254.025 102.8C255.981 103.158 257.937 103.516 259.715 103.874C260.604 108.887 261.493 114.08 262.382 119.093C262.737 121.062 263.093 123.211 263.449 125.18C260.07 124.106 256.692 122.674 253.492 121.42C253.492 121.241 253.314 121.062 253.314 121.062ZM267.182 99.9355C264.693 99.3984 262.204 98.8612 259.715 98.3241C259.004 94.7433 258.115 90.9835 257.048 87.5817C256.87 86.8656 255.626 87.2237 255.803 87.9398C256.87 91.3416 257.759 94.7433 258.47 98.1451C254.381 97.4289 249.936 96.8918 245.847 97.0708C244.958 94.3852 243.891 91.8787 242.646 89.1931C242.291 88.4769 241.224 89.014 241.58 89.9092C242.646 92.2368 243.535 94.7433 244.424 97.0708C235.179 97.2499 226.289 97.0708 217.222 97.608C206.021 98.3241 199.087 89.5512 188.952 87.2236C194.819 83.6429 201.042 80.5992 203.354 73.9747C211.532 76.6603 219.177 83.1057 227.889 83.2848C233.401 83.2848 239.268 82.7477 244.78 82.2105C251.358 81.4944 256.692 81.8525 263.271 82.7477C265.76 83.1057 267.893 83.6429 269.849 84.5381C271.094 90.0883 271.805 95.6385 272.694 101.189C271.094 100.652 269.316 100.473 267.182 99.9355ZM92.2314 98.6822C91.8758 106.56 91.8758 113.901 90.6313 121.778C89.9201 125.717 89.2089 129.477 88.3199 133.237C84.2306 135.743 80.3191 138.071 76.2298 140.577C76.5854 136.46 77.1188 132.342 77.83 128.403C78.0078 127.687 78.1856 126.97 78.1856 126.075C82.0971 123.569 85.8308 121.241 89.7423 118.735C90.6313 118.198 89.7423 116.765 89.0311 117.302C85.653 119.63 82.0971 121.778 78.719 123.927C79.7857 118.735 80.6747 113.542 81.5637 108.171C85.1196 105.844 88.4977 103.337 91.8758 100.652C92.7648 99.9355 91.5202 98.8612 90.8091 99.5774C87.9643 101.905 84.9418 104.053 81.9193 106.023C81.9193 105.844 81.9193 105.844 81.9193 105.665C82.4527 101.726 81.9193 97.787 81.3859 94.0272C85.4752 91.1625 89.9201 88.2979 94.5428 86.3285C93.1204 90.4464 92.4092 94.5643 92.2314 98.6822ZM85.8308 145.412C85.4752 147.56 85.2974 149.888 84.9418 152.215C81.5637 154.364 78.3634 156.87 75.1631 159.198C74.6297 159.556 74.0963 159.914 73.5629 160.451C74.8075 154.722 75.5186 148.634 76.052 142.726C79.9635 140.398 83.875 137.892 87.7865 135.564C87.0754 138.787 86.3642 142.01 85.8308 145.412ZM49.7383 127.866C50.2717 127.508 50.8051 127.15 51.3385 126.791C55.9611 123.748 60.9394 121.062 65.7399 118.198C68.229 116.765 70.896 115.154 73.3851 113.542C72.4961 118.914 71.2516 124.106 70.1848 129.477C67.6956 131.088 65.2065 132.521 62.7174 134.132C58.4503 136.818 54.0054 139.324 49.7383 142.01C48.3159 142.905 47.0714 143.8 45.649 144.695C47.427 139.145 48.6715 133.416 49.7383 127.866ZM48.4937 144.695C52.9386 141.831 57.3835 139.145 62.0062 136.46C64.4953 134.848 67.1623 133.237 69.6514 131.626C69.118 134.132 68.7624 136.639 68.229 139.145C67.8734 141.473 67.5178 143.8 67.34 146.128L67.1623 146.307C60.9394 150.067 54.7166 153.826 48.8493 158.302C46.3602 160.272 43.871 162.241 41.2041 163.853C42.0931 158.302 43.1599 152.752 44.9378 147.381C46.0046 146.307 47.2492 145.412 48.4937 144.695ZM41.3819 165.464C44.4044 163.853 47.0714 161.525 49.7383 159.556C55.25 155.259 61.1172 151.678 67.1623 148.097C66.4511 153.468 65.7399 158.84 64.1397 163.853C63.6063 165.285 63.073 166.717 62.3618 167.971C60.5838 169.224 58.6281 170.298 56.8501 171.551C50.8051 175.49 44.76 179.071 38.5372 182.831C39.4262 177.102 40.1373 171.372 41.0263 165.643C41.0263 165.643 41.2041 165.643 41.3819 165.464ZM60.2282 171.372C60.2282 171.372 60.406 171.372 60.406 171.193C59.6949 172.268 58.9837 173.521 58.0947 174.595C58.0947 174.595 58.0947 174.774 57.9169 174.774C59.517 174.595 61.8284 174.953 63.073 175.132C64.4953 175.132 65.9177 175.132 67.34 175.311C68.5846 173.521 69.8292 171.551 70.7182 169.403C71.6071 167.254 72.3183 165.106 73.0295 162.957C74.2741 162.062 75.5186 161.167 76.7632 160.272C79.4301 158.302 82.0971 156.333 84.764 154.364C84.5862 156.333 84.2306 158.481 83.875 160.451C86.3642 159.735 89.0311 159.198 91.5202 158.661C91.8758 155.796 92.2314 152.752 92.587 149.888C92.9426 149.709 93.1204 149.529 93.476 149.35C94.365 148.992 93.6538 147.56 92.7648 147.918C93.1204 143.979 93.476 140.04 94.1872 136.281C94.5428 134.49 94.8984 132.879 95.254 131.267C99.3432 128.94 103.255 126.612 107.522 124.464C107.344 126.612 107.166 128.94 106.633 131.267C105.388 138.071 103.61 144.695 102.544 151.499C102.188 153.468 102.01 155.259 101.832 157.228C103.966 157.049 105.922 156.87 108.055 156.691C108.411 152.215 108.766 147.739 109.655 143.442C110.544 138.429 111.611 133.595 112.322 128.403C112.856 128.761 113.211 129.119 113.745 129.477C116.945 131.446 119.79 133.595 122.99 135.564C123.523 135.922 124.057 136.281 124.59 136.639C124.057 141.115 122.99 145.591 121.568 150.425C121.034 152.394 120.679 154.364 120.323 156.333C122.812 156.333 125.479 156.154 127.968 156.154C129.391 150.783 130.28 145.233 130.635 140.219C134.013 141.831 137.391 143.084 140.947 142.905C141.125 142.905 141.303 142.905 141.659 142.726C141.481 144.158 141.303 145.591 141.125 147.023C140.592 150.067 140.592 153.11 140.414 156.333C142.725 156.333 145.037 156.512 147.348 156.512C147.348 155.975 147.348 155.438 147.348 154.901C147.704 149.709 148.948 144.337 148.77 138.966C146.459 138.429 144.326 137.534 142.192 136.639C142.192 137.534 142.014 138.429 142.014 139.324C138.458 137.534 134.547 135.743 130.813 133.953C130.635 132.879 130.635 131.805 130.457 130.73C128.68 129.835 127.079 128.94 125.301 127.866C125.301 128.94 125.301 130.014 125.301 130.909C124.235 130.372 123.168 129.656 122.279 129.119C119.79 127.508 116.234 125.18 113.034 124.285C113.034 123.211 113.034 122.136 112.856 121.062C112.322 120.704 111.611 120.525 111.078 120.167C109.833 119.63 110.722 117.66 111.967 118.018C112.145 118.018 112.322 118.198 112.5 118.198C111.967 115.154 111.433 112.289 111.433 109.246C111.433 108.708 111.433 107.992 111.433 107.276C115.167 100.473 116.945 90.9835 122.279 85.4333L122.457 85.2542C124.412 83.2848 126.724 82.0315 129.746 81.3153C131.169 80.9573 132.413 80.4201 133.658 79.883C134.191 80.2411 134.902 79.704 135.08 79.1669C137.391 77.9136 139.525 76.4813 142.192 75.9442C149.837 74.3328 156.949 74.3328 164.594 73.7957C167.261 73.6166 169.75 72.9005 172.417 72.3634C173.662 72.1843 174.906 72.1843 176.151 72.1843C174.906 73.0795 173.662 73.7957 172.417 74.6909C171.528 74.6909 170.995 74.8699 170.639 75.9442C170.461 76.4813 170.995 76.8394 171.528 76.6603C173.84 75.407 175.973 73.7957 178.107 72.1843C178.996 72.1843 180.062 72.1843 181.129 72.3634C188.774 72.3634 194.819 71.4681 202.465 73.4376C199.976 80.2411 192.508 82.9267 186.463 86.5075C184.152 86.3285 181.84 86.3285 179.351 86.6865C172.239 87.4027 166.372 85.6123 159.438 85.0752C152.86 84.5381 147.348 87.5817 142.014 90.9835C140.77 91.8787 138.103 92.4158 136.858 93.49C135.08 94.9224 134.013 96.8918 132.947 98.8612C127.257 105.486 125.124 113.542 124.946 122.494C126.368 123.032 127.613 123.569 129.035 124.106C128.68 121.42 128.502 118.735 128.857 115.87C129.391 112.647 130.102 109.604 130.991 106.918C131.346 106.918 131.524 106.739 131.88 106.56C133.836 104.411 135.08 101.547 137.214 99.3984C139.525 96.8918 139.703 97.608 142.37 96.1756C149.837 92.0577 155.527 90.4464 164.061 92.0577C167.617 92.7739 170.995 93.311 174.551 93.311C176.151 93.311 177.751 93.132 179.351 92.7739C178.64 93.8481 178.107 95.1014 177.751 96.5337C177.751 96.8918 178.107 97.0708 178.284 96.7128C179.173 95.1014 180.24 93.6691 181.485 92.5948C182.907 92.4158 184.329 92.4158 185.752 92.7739C191.797 94.0272 196.597 98.8612 201.931 101.905C200.153 103.516 197.842 104.949 195.886 106.202C194.819 106.918 188.952 110.857 185.752 112.289C180.24 108.887 174.729 104.949 169.039 102.084C165.305 100.115 159.794 99.9355 155.882 100.831C155.171 101.01 154.46 101.368 153.749 101.726C144.503 104.232 142.014 113.363 141.303 122.136C141.125 124.822 141.481 127.687 141.836 130.372C143.792 131.446 145.748 132.342 147.704 133.416C146.103 125.896 144.859 118.377 147.348 111.752C147.348 111.752 147.348 111.752 147.526 111.752C155.349 105.486 160.86 102.263 169.928 109.425C174.373 112.826 178.996 114.975 183.796 117.66C187.352 119.809 191.441 121.599 195.531 123.211C193.753 125.717 191.975 128.224 189.841 130.372C189.308 130.909 190.019 131.805 190.552 131.446C193.219 129.477 195.175 126.612 196.953 123.748C201.576 125.359 206.376 126.433 211.177 126.791C217.222 127.329 222.556 125.359 228.067 123.927C229.845 127.687 230.201 131.984 230.556 135.922C230.556 136.818 230.734 137.534 230.734 138.429C230.379 138.429 230.023 138.25 229.49 138.25C221.133 136.639 216.688 134.311 208.154 136.281C202.287 137.713 197.486 140.04 191.975 136.46C188.774 134.49 186.107 132.342 182.907 130.372C177.573 127.329 174.195 120.346 167.261 121.42C162.816 122.136 161.927 124.285 161.216 127.508C158.371 133.774 158.371 142.726 158.194 148.634C158.016 151.678 158.016 154.543 157.838 157.228C158.371 157.228 159.083 157.407 159.616 157.407C161.394 157.586 161.394 159.914 159.616 160.093C158.905 160.093 158.194 160.272 157.482 160.272C157.127 164.032 156.238 167.792 154.282 171.73C151.971 176.564 149.659 181.399 147.17 186.233C142.014 195.901 132.235 203.062 127.257 213.089C124.59 218.46 124.768 226.338 131.702 227.949C137.214 229.202 143.97 226.338 149.304 225.979C156.06 225.442 159.438 227.412 165.661 229.918C169.217 231.351 172.951 231.709 175.795 234.752C178.284 237.438 178.818 241.198 180.418 244.242C182.196 247.285 185.396 249.971 188.597 251.403C191.086 252.477 193.397 252.119 195.886 253.014C198.375 253.91 200.331 256.058 202.642 257.311C207.265 259.639 211.532 259.46 216.51 258.386C222.378 257.132 227.712 253.91 233.401 251.582C239.268 249.255 244.069 244.779 249.58 241.914C252.781 240.124 254.737 238.691 256.692 235.827C257.937 236.722 259.181 237.796 260.426 238.691C263.093 240.661 265.938 242.451 268.782 244.242C267.36 245.674 266.115 247.106 265.049 248.359C263.271 250.329 261.315 252.835 259.181 254.984C258.826 254.447 257.937 254.268 257.403 254.805C251.003 259.997 243.535 261.429 236.246 264.652C228.423 268.054 222.733 269.844 214.021 268.591C206.732 267.517 199.264 266.084 191.975 264.473C188.952 263.757 186.285 263.757 183.796 261.787C181.663 259.997 180.951 256.953 178.996 254.984C175.795 251.761 171.528 248.718 167.083 248.001C164.772 247.643 162.638 248.359 160.327 247.822C157.838 247.285 155.882 245.316 153.393 244.958C147.704 244.242 142.903 246.569 137.036 244.242C133.48 242.809 131.169 239.945 127.968 237.975C125.124 236.006 121.568 235.11 118.901 232.783C111.789 226.875 114.989 219.892 118.723 213.447C122.279 207.359 128.679 203.779 132.058 198.049C133.124 196.259 132.769 194.289 133.658 192.678C134.191 191.783 135.436 191.246 135.969 190.351C139.703 184.621 143.437 179.071 145.57 172.447C146.815 168.687 146.815 165.285 146.992 161.704C144.503 161.704 142.192 161.883 139.703 161.883C139.703 162.778 139.525 163.674 139.525 164.569C139.169 164.211 138.636 163.853 137.925 164.032C134.013 164.927 129.746 164.927 125.301 164.927C125.657 164.032 126.013 162.957 126.19 162.062C123.879 162.062 121.39 162.062 119.079 162.062C118.901 162.957 118.723 163.853 118.545 164.748C115.878 164.569 113.211 164.569 110.544 164.569C109.3 164.569 107.877 164.748 106.455 164.748C106.633 164.032 106.633 163.137 106.811 162.42C104.677 162.42 102.544 162.599 100.41 162.599C100.232 163.495 100.054 164.39 100.054 165.285C96.4985 165.643 93.1204 165.822 89.5645 165.822V165.643C89.5645 165.464 89.5645 165.464 89.5645 165.285C89.7423 164.569 89.9201 163.674 90.0979 162.957C87.6087 163.137 85.1196 163.137 82.6305 163.137C82.4527 163.853 82.2749 164.569 82.0971 165.285C81.0303 165.464 80.4969 166.717 81.5637 167.433C81.5637 167.433 81.5637 167.433 81.5637 167.613C81.0303 169.224 80.4969 170.477 79.7857 171.73C79.0746 172.089 78.5412 172.626 78.0078 172.984C74.4519 175.49 70.896 177.997 67.1623 180.324C66.6289 180.682 66.0955 181.04 65.7399 181.399C64.6731 181.578 63.7841 181.936 62.7174 182.115C63.073 181.578 63.4286 180.861 63.9619 180.324C61.1172 180.145 58.2725 179.608 55.7833 178.892C55.0722 180.503 54.5388 182.115 53.8276 183.726C49.3827 184.442 44.5822 184.979 40.4929 184.8C40.1373 184.8 39.7817 184.8 39.4262 184.621C46.7158 179.787 53.6498 175.848 60.2282 171.372ZM107.7 178.713C99.8766 179.429 92.0536 179.966 84.2306 180.145C84.0528 180.145 83.875 180.145 83.6972 180.145C81.3859 180.145 79.0746 180.145 76.7632 180.145C74.8075 180.145 72.6739 180.145 70.7182 179.966C70.896 179.787 71.2516 179.608 71.4294 179.429C73.7407 177.818 76.052 176.206 78.1856 174.774C78.0078 174.953 77.83 175.311 77.6522 175.49C80.4969 175.49 83.3417 175.311 86.1864 175.311C86.8976 174.237 87.6087 172.984 88.1421 171.73C88.4977 170.656 89.0311 169.761 89.3867 168.687C92.7648 169.403 96.1429 169.761 99.521 169.94C98.9877 171.551 98.2765 172.984 97.3875 174.416C99.6988 174.237 102.188 173.879 104.499 173.7C105.033 172.626 105.388 171.551 105.744 170.298C108.589 170.477 111.611 170.477 114.456 170.477C115.167 170.477 116.056 170.477 116.767 170.477C116.412 171.193 116.056 171.73 115.7 172.268C117.834 172.089 120.145 171.909 122.279 171.73C122.457 171.372 122.812 171.014 122.99 170.477C129.213 170.477 136.147 169.582 139.525 165.822C139.169 167.613 138.636 169.403 137.925 171.193C138.103 171.193 138.458 171.193 138.636 171.193C140.414 171.193 140.947 173.879 138.992 174.416C138.103 174.595 137.036 174.953 136.147 175.132C135.614 176.385 134.902 177.46 134.191 178.713C133.836 178.713 133.48 178.534 133.124 178.713C128.502 179.608 123.168 178.892 118.19 178.176C118.19 177.997 118.367 177.997 118.367 177.818C114.811 178.176 111.256 178.355 107.7 178.713ZM90.2757 220.071C89.3867 223.652 89.0311 227.591 90.2757 230.993C90.4535 231.351 90.6313 231.709 90.8091 232.067C90.8091 232.067 90.6313 232.067 90.6313 232.246C87.7865 235.11 85.1196 237.796 82.4527 240.661C81.3859 236.364 80.3191 232.067 81.2081 227.949C82.2749 223.473 85.1196 219.713 85.8308 214.879C86.1864 212.91 86.542 211.119 86.8976 209.508C87.4309 208.434 87.9643 207.359 88.3199 206.106C88.3199 205.927 88.3199 205.748 88.1421 205.569C89.0311 203.42 89.9201 201.272 91.3424 198.765C93.476 194.827 95.0761 190.888 96.6763 186.77C99.521 186.412 102.188 186.054 105.033 186.054C106.455 186.054 107.877 186.233 109.3 186.233C108.944 187.307 108.589 188.381 108.055 189.455C105.922 195.185 102.188 196.975 98.6321 201.809C95.254 206.643 91.8758 214.521 90.2757 220.071ZM79.0746 253.014C79.6079 254.626 80.1413 256.237 81.0303 257.49C78.3634 261.429 75.6964 265.189 72.8517 268.77C71.2516 268.054 69.6514 267.696 68.0512 266.084C66.0955 264.294 65.5621 262.683 65.2065 260.713C65.5621 260.355 66.0955 259.818 66.4511 259.46C70.3626 255.521 74.0963 251.582 77.83 247.643C78.1856 249.434 78.5412 251.224 79.0746 253.014ZM81.9193 258.565C82.8083 259.46 83.6972 260.176 85.1196 260.892C87.7865 262.145 90.4535 262.683 92.9426 264.294C89.5645 267.875 85.8308 271.097 82.0971 274.499C79.7857 272.709 77.4744 271.097 75.3409 269.844C74.9853 269.665 74.6297 269.486 74.2741 269.307C76.941 265.905 79.4302 262.325 81.9193 258.565ZM65.7399 257.849C65.3843 258.207 65.0287 258.565 64.6731 258.923C64.4953 258.207 64.4953 257.311 64.3175 256.595C63.4286 252.656 62.0062 248.359 61.295 244.062C66.0955 239.407 70.7182 234.752 74.9853 229.739C74.9853 230.634 74.9853 231.709 74.9853 232.783C75.3408 237.08 76.2298 241.556 77.2966 246.032C73.5629 250.15 69.6514 254.089 65.7399 257.849ZM61.1172 234.752C61.295 233.678 61.6506 232.604 62.0062 231.709C66.2733 227.949 70.7182 224.189 74.9853 220.429C76.2298 219.176 77.83 218.102 79.2524 217.027C78.8968 217.923 78.719 218.818 78.3634 219.534C77.1188 222.578 75.8742 224.726 75.3409 227.054C70.7182 232.425 65.9177 237.438 60.9394 242.272C60.5838 239.766 60.5838 237.259 61.1172 234.752ZM52.7608 238.333C48.4937 242.63 44.0488 246.748 39.604 250.866C39.2484 247.822 39.0706 244.958 39.7817 242.093C41.2041 236.006 44.9378 230.993 45.8268 224.547C45.8268 224.189 46.0046 223.652 46.0046 223.294C51.3385 218.639 56.4945 213.805 61.6506 209.15C60.0504 214.342 59.8726 219.892 57.5613 225.084C55.4278 229.918 53.8276 232.783 53.6498 237.438C53.472 237.796 53.1164 237.975 52.7608 238.333ZM59.5171 189.097C63.7841 188.918 67.8734 188.56 71.9627 188.023C71.4294 189.097 71.0738 190.172 70.5404 191.246C64.3175 196.617 57.9169 201.809 51.3385 206.643C51.8718 205.39 52.583 203.958 53.2942 202.704C55.6055 198.228 57.5613 193.752 59.5171 189.097ZM50.2717 209.508C56.6723 205.032 62.7174 200.019 68.5846 195.006C66.9845 198.228 65.2065 201.272 63.6063 204.495C63.4286 204.674 63.4285 205.032 63.2508 205.211C57.7391 210.224 52.2274 215.058 46.538 219.892C47.2492 216.311 48.3159 213.089 49.7383 209.866C50.0939 209.687 50.0939 209.687 50.2717 209.508ZM66.4511 219.534C67.5178 212.014 69.4736 207.18 72.8517 200.556C73.5629 199.123 74.2741 197.87 74.8075 196.438C75.6964 195.543 76.5854 194.648 77.4744 193.752C78.1856 193.036 77.2966 192.141 76.5854 192.499C77.2966 190.709 78.0078 189.097 78.719 187.307C82.6305 186.949 86.3642 186.77 90.2757 186.949C90.4535 186.949 90.6313 186.949 90.8091 186.949C88.6755 192.141 86.0086 196.975 83.3416 201.809C81.2081 205.748 80.8525 209.866 79.9635 213.984C76.941 216.311 74.0963 219.176 71.2516 221.683C68.5846 224.01 65.9177 226.338 63.073 228.665C64.4953 225.8 65.9177 222.936 66.4511 219.534ZM49.3827 193.394C44.4044 197.691 39.2484 201.63 34.0923 205.748C33.3811 206.285 32.6699 206.822 31.9587 207.359C32.1365 207.001 32.3143 206.464 32.4921 206.106C34.9813 200.019 36.5814 193.573 37.6482 187.128C39.2484 187.844 41.0263 188.56 42.9821 188.739C45.8268 189.097 48.8493 189.276 51.8718 189.276C51.3385 190.53 50.8051 191.604 50.2717 192.678C49.9161 192.857 49.7383 193.036 49.3827 193.394ZM23.6024 219.534C25.9137 216.49 28.0472 213.805 30.003 210.94C31.0698 210.224 32.1365 209.508 32.8477 208.792C38.1816 205.032 43.3377 200.914 48.1381 196.796C48.1381 196.796 48.1381 196.796 48.3159 196.617C46.538 200.198 44.5822 203.6 42.6265 207.18C41.2041 209.687 40.4929 212.193 39.7817 214.879C33.2033 219.355 26.8027 224.01 20.2242 228.486C20.7576 225.084 21.4688 222.578 23.6024 219.534ZM34.6257 233.499C32.3143 238.691 30.7142 242.272 31.4254 248.897C31.6032 251.761 32.1365 254.626 32.6699 257.49C31.0698 258.923 29.6474 260.534 27.8694 261.787C26.2693 263.22 24.4913 264.115 22.5356 264.831C22.18 261.071 21.8244 257.311 21.6466 253.91C21.4688 251.224 21.1132 248.538 20.9354 246.032C25.3803 241.735 30.003 237.617 34.6257 233.499ZM22.7134 266.442C24.1357 265.726 25.7359 265.189 26.9805 264.294C29.114 262.862 30.892 261.071 32.8477 259.102C33.3811 261.787 33.9145 264.473 34.6257 266.98C33.7367 267.875 33.0255 268.591 32.1365 269.486C29.4696 272.172 26.9805 275.036 24.4913 277.901C23.6024 274.141 23.069 270.381 22.7134 266.442ZM39.7817 252.477C44.5822 248.18 49.0271 243.704 53.6498 239.228C53.6498 239.586 53.6498 240.124 53.6498 240.482C53.8276 242.988 54.1832 245.495 54.7166 248.001C52.583 249.971 50.4495 251.94 48.3159 254.089C46.0046 256.058 43.871 258.207 41.5597 260.355C41.0263 257.849 40.3151 255.163 39.7817 252.477ZM43.3377 267.338C42.9821 265.547 42.4487 263.936 42.0931 261.966C44.4044 259.818 46.538 257.849 48.8493 255.7C50.9829 253.731 53.1164 251.761 55.0722 249.792C55.9611 254.626 57.2057 259.46 58.4503 263.936C58.4503 264.294 58.6281 264.473 58.6281 264.652C56.8501 266.442 54.8944 268.054 53.1164 269.844C50.9829 271.814 48.8493 273.783 46.538 275.573C46.3602 275.573 46.1824 275.932 45.8268 276.111C44.0488 273.783 44.2266 271.097 43.3377 267.338ZM65.3843 279.87C66.9845 278.259 68.4068 276.648 69.8292 275.036C71.7849 275.753 73.5629 276.469 75.5186 277.901C76.052 278.259 76.7632 278.796 77.2966 279.154C76.941 279.333 76.7632 279.691 76.4076 279.87C72.8517 283.093 69.4736 286.316 66.0955 289.539C64.3175 288.106 62.5396 286.674 60.5838 285.421C62.0062 283.451 63.6063 281.661 65.3843 279.87ZM95.254 285.6L95.0762 285.421C98.2765 281.124 101.121 276.648 104.144 272.172C105.922 273.425 107.522 274.678 109.478 275.573C106.455 279.691 103.255 283.63 100.232 287.748C98.4543 287.211 96.8541 286.495 95.254 285.6ZM93.8316 284.704C91.8758 283.272 90.4535 281.303 88.4977 279.691C86.8976 278.438 85.1196 276.827 83.3416 275.394C87.0754 271.993 90.8091 268.77 94.1872 265.189C96.3207 266.801 98.6321 268.233 100.766 269.844C101.477 270.381 102.188 270.918 102.899 271.456C99.8766 275.932 96.8541 280.229 93.8316 284.704ZM93.2982 257.849C90.9869 256.595 89.0311 256.595 87.0754 254.626C84.4084 252.119 84.5862 249.971 83.875 246.569C83.5194 245.137 83.1638 243.704 82.8083 242.272C85.653 239.407 88.4977 236.364 91.3424 233.499C94.1872 239.586 99.3432 245.137 103.255 250.508C102.366 251.761 101.477 253.194 100.588 254.626C99.521 256.595 98.0987 258.386 96.6763 259.997C95.6095 259.281 94.5428 258.565 93.2982 257.849ZM269.671 300.46C269.494 299.565 268.071 299.923 268.249 300.818C268.427 301.713 268.605 302.608 268.782 303.504C267.716 303.862 266.649 304.22 265.404 304.757C262.56 306.189 259.893 307.801 257.226 309.412C256.337 305.115 255.448 300.818 254.203 296.521C256.159 295.268 257.759 293.656 260.07 292.94C263.626 291.508 266.293 292.403 269.849 292.582C274.65 292.94 277.85 290.971 281.761 288.464C283.184 287.569 284.606 286.674 286.206 285.779C287.984 290.434 289.584 295.089 291.007 299.923C290.829 300.102 290.473 300.281 290.296 300.46C284.073 304.041 276.961 301.892 270.205 303.325C270.027 302.429 269.849 301.355 269.671 300.46ZM230.734 319.796C230.201 315.141 229.667 310.665 228.956 306.189C232.69 305.294 236.424 303.683 240.157 302.788C240.513 302.608 240.868 302.608 241.224 302.429C242.469 306.547 242.824 311.202 242.824 315.678C238.913 316.753 235.179 318.543 231.09 319.796C231.09 319.796 230.912 319.796 230.734 319.796ZM191.797 289.36C196.242 289.539 200.509 289.897 204.598 289.001C206.91 290.255 208.154 290.434 210.465 290.076C210.999 293.119 211.177 296.342 211.354 299.565C208.154 299.565 204.954 300.281 201.753 300.997C201.576 300.997 201.398 300.818 201.22 300.818C200.331 300.818 199.264 300.818 198.375 300.818C198.375 298.491 198.375 295.984 198.375 293.656C198.375 292.761 197.131 292.761 197.131 293.656C197.131 295.984 197.131 298.491 197.131 300.818C195.353 300.818 193.575 300.639 191.797 299.923C189.663 299.028 187.174 297.595 185.041 296.342C183.974 295.805 183.441 295.268 181.663 294.731C181.663 292.761 181.663 290.613 181.663 288.643C185.396 289.539 188.063 289.36 191.797 289.36ZM185.93 303.504C190.019 305.473 193.219 305.652 196.953 305.115C196.953 309.949 196.953 314.962 196.953 319.796C194.642 319.796 192.508 319.617 190.197 318.722C187.708 317.648 184.863 316.036 182.552 314.604C182.374 314.604 181.84 314.425 181.84 314.425C181.84 310.128 181.84 305.831 181.84 301.534C183.618 302.25 184.685 302.967 185.93 303.504ZM198.553 304.936C199.62 304.757 200.687 304.578 201.753 304.399C202.109 304.399 202.465 304.041 202.642 303.862C205.843 304.041 210.465 304.041 211.354 304.041C211.532 304.041 211.532 304.041 211.71 304.041C211.71 305.294 211.888 306.547 211.888 307.801C212.066 311.381 212.421 314.962 212.777 318.364C209.043 318.543 205.487 319.259 201.931 320.154C201.753 320.154 201.576 319.975 201.398 319.975C200.509 319.975 199.62 319.975 198.731 319.975C198.553 314.962 198.553 309.949 198.553 304.936ZM213.132 305.294C213.132 304.936 213.132 304.578 213.132 304.399C217.044 305.115 220.6 307.084 224.689 306.905C225.756 306.905 226.645 306.726 227.712 306.547C228.423 311.023 228.956 315.678 229.49 320.154C225.045 320.871 222.556 319.259 217.933 318.722C216.688 318.543 215.444 318.543 214.199 318.543C213.666 314.067 213.31 309.77 213.132 305.294ZM242.469 302.071C246.202 300.997 249.936 299.386 253.314 297.237C254.381 301.534 255.448 305.831 256.159 310.128C252.425 312.277 248.691 314.246 244.069 315.32C243.891 310.844 243.713 306.189 242.469 302.071ZM277.494 284.167C270.916 287.927 263.271 284.346 256.337 287.927C250.647 290.792 246.202 294.373 240.157 296.342C239.98 295.984 239.624 295.626 239.446 295.268C238.913 294.552 237.846 295.268 238.379 295.984C238.557 296.342 238.735 296.521 238.913 296.879C238.557 297.058 238.024 297.058 237.668 297.237C234.112 298.132 230.734 299.923 227.178 300.818C222.378 302.25 220.066 300.639 215.621 299.923C214.733 299.744 213.844 299.744 212.955 299.744C212.777 296.521 212.421 293.298 212.066 290.076C212.955 289.897 213.844 289.718 215.088 289.36C220.422 287.927 227.356 288.822 233.045 288.643C236.601 288.464 239.979 287.927 243.358 286.316C248.158 283.988 250.469 279.691 255.803 278.259C258.826 277.543 262.204 277.722 265.049 276.469C268.96 274.857 275.361 271.456 278.561 268.77C282.65 265.368 284.606 260.176 286.562 255.342C290.118 257.849 294.207 260.355 298.119 261.966C294.029 271.277 286.562 278.796 277.494 284.167ZM178.284 285.779C179.351 286.674 180.24 287.39 181.129 287.748C181.129 287.927 181.129 287.927 181.129 288.106C181.129 290.076 181.129 291.866 181.129 293.836C179.351 292.94 177.395 292.403 175.44 291.866C175.44 289.001 175.44 285.958 175.44 283.093C176.329 283.988 177.395 284.884 178.284 285.779ZM175.44 298.312C177.573 298.849 179.351 299.744 181.129 300.639C181.129 304.936 181.129 309.233 181.129 313.53C178.996 312.277 176.862 311.381 174.729 310.665C174.906 306.547 175.084 302.429 175.084 298.312C175.262 298.312 175.262 298.312 175.44 298.312ZM159.794 299.386C159.616 302.25 159.438 305.115 159.083 307.98C158.194 307.801 157.127 307.801 156.238 307.622C156.416 303.683 156.416 299.744 155.704 295.984C156.949 296.163 158.371 296.342 159.794 296.521C159.794 297.416 159.794 298.491 159.794 299.386ZM157.482 315.499C157.838 315.499 158.016 315.499 158.371 315.678C158.194 318.364 158.016 321.229 158.016 323.914C158.016 324.988 158.016 326.063 158.016 327.137C157.305 326.958 156.416 326.958 155.704 326.779C155.704 325.705 155.704 324.451 155.704 323.377C155.527 320.691 155.704 318.006 155.882 315.32C156.416 315.499 156.949 315.499 157.482 315.499ZM162.461 327.674C161.394 327.495 160.327 327.495 159.26 327.316C159.26 324.451 159.26 321.766 159.438 318.901C159.438 317.827 159.616 316.753 159.616 315.678C163.527 316.036 167.261 316.036 171.173 316.932C171.884 317.111 172.595 317.29 173.306 317.648C173.128 320.871 172.951 324.093 172.595 327.495C172.595 328.39 172.417 329.285 172.417 330.181C169.217 328.927 166.194 328.211 162.461 327.674ZM174.373 318.185C176.684 319.259 178.818 320.512 181.129 321.766C181.129 326.063 181.129 330.36 181.129 334.657C180.774 334.478 180.418 334.298 180.062 334.119C177.929 332.866 175.795 331.792 173.84 330.897C174.017 326.6 174.195 322.482 174.373 318.185ZM181.84 322.482C183.618 322.661 183.085 322.84 183.441 323.198C188.419 325.705 192.33 325.705 196.775 324.988C196.775 330.002 196.775 335.015 196.775 340.207C193.93 340.207 190.908 340.028 188.063 338.954C185.93 338.058 185.218 336.805 181.663 335.731C181.84 331.255 181.84 326.958 181.84 322.482ZM198.731 324.809C199.798 324.63 200.864 324.451 201.931 324.272C202.465 324.272 202.82 323.914 202.998 323.735C206.732 323.914 212.243 323.914 213.132 323.914H213.31C213.488 325.884 213.666 327.853 214.021 329.823C214.377 332.687 214.555 335.731 214.733 338.595C210.465 338.774 206.198 339.67 202.109 340.565C201.931 340.565 201.753 340.386 201.398 340.386C200.509 340.386 199.62 340.386 198.731 340.386C198.731 335.194 198.731 330.002 198.731 324.809ZM215.088 327.137C214.91 326.063 214.91 324.988 214.733 324.093C219.355 324.988 223.8 327.316 228.601 327.137C229.134 327.137 229.667 326.958 230.023 326.958C230.201 329.285 230.379 331.792 230.556 334.119C230.734 336.268 230.734 338.416 230.734 340.744C227.356 340.744 224.511 339.491 220.422 338.954C218.822 338.775 217.399 338.595 215.799 338.595C215.799 334.657 215.444 330.897 215.088 327.137ZM260.248 327.853C259.715 324.451 259.359 321.05 258.826 317.648C260.07 316.932 261.315 316.395 262.382 315.678C265.049 314.067 267.182 311.919 270.205 310.844H270.383C271.272 315.32 272.16 319.796 273.049 324.093C268.782 326.421 264.871 328.927 260.782 331.076C260.604 330.002 260.426 328.927 260.248 327.853ZM294.563 306.189C294.918 306.01 295.274 305.831 295.629 305.652C298.83 303.683 302.741 301.355 306.297 298.67C307.72 303.683 308.964 308.696 310.387 313.709C308.431 315.141 306.297 316.395 304.164 317.648C302.386 318.722 300.43 319.259 298.474 319.796C297.052 315.32 295.807 310.844 294.563 306.189ZM331.722 285.421C330.655 279.691 329.588 273.962 328.344 268.233C327.455 264.652 326.566 261.071 325.677 257.311C325.677 257.132 325.677 257.132 325.855 256.953C327.633 252.835 329.588 248.897 331.722 244.958C333.678 251.582 335.456 258.386 337.411 265.01C337.589 265.547 337.767 266.263 337.945 266.801C336.878 269.307 336.167 271.814 335.633 274.678C334.922 279.154 333.678 283.272 332.078 287.032C331.9 286.495 331.722 285.958 331.722 285.421ZM339.012 264.473C338.656 263.22 338.123 261.787 337.767 260.534C335.989 254.626 334.389 248.717 332.611 242.988C332.967 242.272 333.322 241.377 333.678 240.661C335.633 236.543 338.834 231.351 338.834 226.696C338.834 225.621 337.945 225.084 337.056 225.084C337.767 223.115 338.656 220.966 339.367 218.997C340.256 222.041 341.145 225.084 341.679 228.307C342.568 233.857 342.39 239.407 342.745 245.137C342.923 248.538 343.456 251.94 344.168 255.342C342.212 258.386 340.434 261.429 339.012 264.473ZM34.6257 297.774C31.9587 294.194 28.5806 290.971 26.9805 286.674C26.0915 284.525 25.5581 282.198 24.8469 279.87C27.3361 277.185 29.6474 274.32 32.1365 271.635C33.0255 270.739 33.9145 269.844 34.9813 268.77C35.5147 271.097 36.2258 273.604 36.7592 275.753C37.2926 277.901 38.1816 279.87 39.2484 281.661C39.2484 281.84 39.2484 282.019 39.2484 282.198C39.2484 282.556 39.604 282.914 39.9595 282.735C41.2041 284.167 42.8043 285.6 44.76 286.495C47.7825 287.927 50.9829 288.822 53.8276 290.255C50.6273 294.194 47.427 298.132 44.0488 301.892C44.76 299.744 45.8268 297.595 46.7158 297.237C47.0714 297.237 46.8936 296.7 46.7158 296.7L45.2934 296.879C45.1156 296.879 44.9378 297.058 44.9378 297.237C44.0488 300.102 42.8043 302.429 41.3819 305.115C40.8485 305.831 41.9153 306.726 42.6265 306.01C47.2492 301.534 51.5163 296.342 55.6055 291.329C55.7833 291.508 55.9611 291.508 56.1389 291.687C57.5613 292.761 58.9837 293.656 60.5838 294.731C59.8726 295.447 59.1615 295.984 58.4503 296.7C54.0054 301.176 48.6715 305.473 45.4712 310.844C44.76 310.307 44.2266 309.77 43.5155 309.233C39.9595 306.01 37.6482 301.713 34.6257 297.774ZM46.7158 311.919C48.1381 310.486 49.5605 309.233 50.2717 307.622C53.8276 303.504 57.7391 299.565 61.6506 295.626C63.073 296.7 64.4953 297.595 65.9177 298.67C69.6514 301.355 73.0295 303.862 76.7632 306.01C75.8742 307.084 74.9853 308.159 74.0963 309.233C72.1405 311.56 70.007 313.53 68.0512 315.857C66.9845 317.111 66.0955 318.364 65.2065 319.617C64.8509 319.617 64.6731 319.438 64.3175 319.438C65.2065 317.648 66.8067 316.036 68.0512 315.499C68.4068 315.32 68.0512 314.783 67.8734 314.962C66.2733 315.499 64.4953 317.29 63.2508 319.259C57.5613 317.648 51.8718 315.857 46.7158 311.919ZM98.2765 331.255C91.8758 328.032 86.0086 324.809 79.2524 322.661C80.8525 321.05 82.2749 319.08 83.5194 317.469C84.9418 315.499 86.8976 313.172 87.6087 310.844C90.2757 311.919 92.9426 313.172 95.4317 314.425C93.8316 316.753 92.2314 319.259 90.9869 321.945C90.6313 322.661 91.3425 323.377 92.0536 323.019C94.0094 322.124 95.4317 320.871 96.8541 318.901C97.0319 318.543 96.6763 318.185 96.3207 318.543C95.4317 319.617 94.5428 320.333 93.2982 320.871C94.365 318.901 95.4317 317.111 96.6763 315.141C98.4543 316.036 100.054 317.111 101.832 318.364C103.433 316.753 105.21 315.141 106.811 313.53C104.499 312.277 102.188 311.023 99.8766 309.949C100.943 308.338 101.832 306.547 102.899 304.936C104.499 302.25 106.099 299.565 107.7 297.058C110.722 298.491 113.745 300.281 116.767 302.608C117.123 302.788 117.301 302.967 117.656 303.325C117.834 303.146 118.19 302.788 118.367 302.608C117.478 306.368 114.634 309.591 112.5 312.814C112.145 313.53 111.789 314.246 111.433 314.962C109.122 316.932 106.988 318.901 104.677 320.871C104.855 321.05 105.033 321.05 105.21 321.229C103.077 323.914 101.121 328.211 98.2765 331.255ZM148.77 286.316C147.881 286.495 146.992 286.853 146.103 287.211C145.214 287.032 144.503 286.674 143.614 286.316C141.836 287.748 139.881 289.18 138.103 290.613C138.458 290.792 138.992 290.971 139.347 291.15C135.969 293.477 132.413 295.805 129.035 298.132C127.435 299.386 126.013 300.818 124.412 302.25C121.39 305.115 118.19 308.159 115.167 311.023C117.478 307.801 119.968 304.757 120.323 300.639C120.323 300.46 120.323 300.46 120.323 300.281C121.034 299.565 121.923 298.849 122.634 298.132C118.723 296.163 114.989 294.015 111.078 292.045C112.322 290.255 113.567 288.643 114.989 286.853C115.7 285.958 114.456 284.884 113.922 285.779C112.5 287.569 111.078 289.539 109.655 291.329C108.055 290.613 106.455 289.897 104.855 289.36C103.788 289.001 102.899 288.643 101.832 288.285C104.855 284.167 107.877 280.228 110.9 276.29C111.789 276.648 112.678 277.185 113.567 277.364C119.434 279.512 124.057 281.661 129.213 285.242C130.635 286.316 132.058 287.211 133.48 287.927C135.08 286.495 136.68 285.242 138.28 283.988C131.702 281.124 125.479 276.827 118.723 274.32C116.945 273.783 115.345 273.067 113.567 272.53C114.1 271.814 114.634 271.097 115.167 270.381C115.7 269.486 114.456 268.77 113.922 269.665C113.389 270.381 112.856 271.097 112.322 271.993C111.789 271.814 111.256 271.456 110.722 271.277C109.3 270.381 108.055 269.307 106.988 268.233C108.589 266.084 110.011 263.757 111.611 261.608C112.145 260.892 110.9 260.176 110.367 260.892C108.766 263.041 107.344 265.01 105.922 267.159C105.566 266.801 105.211 266.442 104.855 266.263C102.899 264.652 100.588 262.683 98.2765 260.892C99.521 259.639 100.588 258.207 101.477 256.774C102.544 254.984 103.433 253.373 104.499 251.761C106.988 255.163 107.877 255.7 112.145 257.132C119.434 259.639 126.19 263.757 133.658 266.084C135.08 266.442 136.503 266.621 137.747 266.801C143.081 267.696 142.014 268.412 145.57 269.486C151.26 271.097 157.66 271.097 163.172 273.425C167.617 275.394 171.173 278.796 174.729 282.019C174.551 282.019 174.373 282.377 174.373 282.556C174.373 285.421 174.373 288.464 174.373 291.329C173.84 291.15 173.306 291.15 172.773 291.15C169.039 290.613 165.128 290.255 161.394 289.897C161.394 287.748 161.394 285.6 161.927 283.451C162.461 280.587 163.35 278.259 163.35 275.394C163.35 274.678 162.283 274.678 162.283 275.394C162.461 279.154 160.86 282.556 160.505 286.316C160.505 287.39 160.327 288.464 160.327 289.718C160.149 289.718 159.794 289.718 159.616 289.718C159.438 289.718 159.083 289.718 158.905 289.718C159.083 289.539 159.438 289.36 159.794 289.001C161.927 287.211 159.26 284.525 157.127 285.421C154.638 286.495 151.082 285.6 148.77 286.316ZM152.504 347.547C153.037 345.041 153.749 342.534 154.104 340.207C154.46 338.595 154.638 336.984 154.993 335.373C156.06 335.373 157.127 335.552 158.194 335.552C158.194 339.133 158.194 342.713 158.016 346.294C158.016 346.831 158.016 347.547 157.838 348.085C157.305 348.085 156.771 347.906 156.238 347.906C154.993 347.906 153.749 347.727 152.504 347.547ZM175.262 351.307C174.729 351.307 174.017 351.128 173.484 350.949C173.484 347.189 173.662 343.43 173.662 339.849C176.151 341.102 178.64 342.713 181.129 343.967C181.129 346.473 181.129 348.98 181.129 351.665C179.173 351.665 177.218 351.665 175.262 351.307ZM182.552 351.486C182.552 349.159 182.552 346.831 182.552 344.504C187.885 346.831 191.797 346.831 196.953 345.936C196.953 347.906 196.953 349.696 196.953 351.665C194.819 351.307 192.508 351.128 190.019 351.128C187.53 351.307 185.041 351.486 182.552 351.486ZM198.731 352.023C198.731 349.875 198.731 347.906 198.731 345.757C199.798 345.578 200.864 345.399 202.109 345.22C202.642 345.041 202.998 344.862 203.354 344.504C207.621 344.683 214.021 344.683 215.088 344.683C215.266 349.159 215.622 353.635 215.799 357.932C215.444 357.753 214.91 357.574 214.555 357.395C209.221 355.067 204.065 353.098 198.731 352.023ZM217.222 358.648C216.866 355.783 216.51 352.74 216.333 349.875C216.333 348.264 216.155 346.652 216.155 345.041C221.133 345.757 225.756 348.264 230.912 348.622C230.912 352.561 230.912 356.32 231.268 360.259C226.645 360.438 221.844 360.08 217.222 358.648ZM231.979 359.901C232.334 356.141 232.512 352.202 232.512 348.443C232.69 348.443 232.69 348.443 232.868 348.443C236.957 348.264 241.046 347.01 245.136 345.578C245.136 346.294 245.313 347.01 245.313 347.726C245.669 350.77 245.491 353.814 245.491 356.858C240.868 358.29 236.424 359.364 231.979 359.901ZM271.094 349.338C268.427 349.696 265.582 350.412 262.915 351.128C262.915 349.517 262.737 347.726 262.56 346.115C262.382 344.146 262.204 342.176 262.026 340.207C265.404 338.775 268.782 337.163 271.805 335.373C272.872 334.657 273.938 333.94 274.827 333.224C275.005 333.761 275.005 334.298 275.183 335.015C276.072 339.491 276.961 344.146 277.85 348.622C275.716 348.622 273.405 348.98 271.094 349.338ZM279.45 348.443C278.561 343.788 277.672 339.133 276.605 334.478C276.428 333.761 276.25 333.045 276.072 332.15C277.494 331.255 278.917 330.181 280.517 329.643C285.14 327.853 288.873 328.927 293.674 329.106C295.452 329.285 297.052 329.106 298.474 328.748C299.185 331.792 299.897 334.836 300.786 337.879C301.497 340.744 302.208 343.967 303.097 346.831C302.564 346.831 302.03 347.01 301.675 347.01C294.385 347.906 286.918 347.906 279.45 348.443ZM305.23 346.831C303.63 340.744 302.03 334.657 300.43 328.569C303.808 327.674 306.653 325.884 310.031 323.914C310.742 323.377 311.631 323.019 312.342 322.482C314.12 329.464 315.543 337.521 320.343 343.071C315.898 345.757 310.564 346.294 305.23 346.831ZM322.654 341.281C322.477 341.46 322.121 341.639 321.943 341.997C317.498 335.91 315.72 328.927 313.765 321.587C318.921 318.543 324.432 314.604 328.522 309.949C330.122 316.395 331.011 323.198 334.389 328.927C330.655 333.403 326.744 337.7 322.654 341.281ZM379.905 225.979C373.148 246.927 365.859 268.233 357.325 288.643C351.813 301.713 344.523 315.678 335.278 327.674C335.278 327.674 335.278 327.674 335.278 327.495C335.278 327.316 335.1 327.316 334.922 327.137C332.433 321.05 331.189 314.783 329.588 308.338C331.189 306.189 332.433 303.862 333.144 301.355C333.5 300.997 333.678 300.639 334.033 300.281C335.633 304.936 337.411 309.591 337.767 314.604C337.767 315.499 339.012 314.962 339.012 314.962C339.012 309.591 337.411 306.01 335.811 301.892C335.456 300.997 335.278 300.102 334.922 299.028C337.056 295.805 338.656 291.15 339.723 288.285C340.967 285.242 341.501 282.019 342.034 278.796C343.101 281.124 344.345 283.272 346.657 284.525C347.012 284.704 347.724 284.525 347.724 283.988C348.257 280.766 347.901 277.722 345.768 275.215C345.59 275.036 345.234 275.215 345.412 275.573C347.012 277.722 347.546 280.049 346.835 282.556C344.701 280.587 343.634 278.08 342.745 275.394C343.279 272.709 343.812 270.023 345.057 267.517C345.412 266.621 345.768 265.726 346.301 265.01C346.657 267.338 347.012 269.665 347.368 271.993C347.368 272.351 347.901 272.351 347.901 271.993C348.079 268.949 347.724 265.905 347.368 262.862C349.679 258.028 351.991 253.373 354.302 248.718C355.369 246.569 356.613 244.242 357.68 241.914C357.68 243.346 357.858 244.779 358.036 246.39C358.391 249.971 359.102 253.731 359.102 257.49C359.102 261.787 357.858 265.905 358.036 270.202C358.036 270.56 358.569 270.56 358.569 270.202C359.102 265.905 360.347 261.787 360.525 257.49C360.703 253.373 359.814 249.076 359.458 244.958C359.28 242.988 359.102 241.019 359.102 239.049C359.814 236.901 360.347 234.752 360.347 232.783C360.347 231.709 359.636 231.172 358.747 230.993C358.747 230.635 358.747 230.097 358.569 229.739C362.303 219.534 367.637 209.687 368.526 198.407C369.237 188.918 371.904 180.145 371.37 170.656C370.837 160.988 362.481 155.08 362.303 145.412C362.125 140.757 364.259 136.639 364.614 132.163C364.97 129.298 364.97 126.254 364.97 123.39C368.703 124.106 372.615 124.643 375.993 125.717C377.771 126.254 379.549 126.791 381.327 127.329C381.683 138.608 381.86 149.888 384.349 161.346C389.15 183.01 386.839 204.674 379.905 225.979Z" fill="#DCDAD1" fill-opacity="0.39"/>
</svg>
